<svg id="Calque_1" data-name="Calque 1" xmlns="http://www.w3.org/2000/svg" viewBox="0 0 595.28 198.43"><rect width="595.28" height="198.43" style="fill:#237abf"/><g id="logo"><path d="M246.25,118.38a43.18,43.18,0,0,0,3.77,8.33l3.6-1.55a.63.63,0,0,1,.83.33l1.17,2.71a.63.63,0,0,1-.33.83l-2.94,1.26a43.76,43.76,0,0,0,8.21,8.6l2-3.49a.63.63,0,0,1,.86-.23l2.55,1.47a.63.63,0,0,1,.23.87L264,141.35a43.58,43.58,0,0,0,10,4.79V118.38Z" transform="translate(-0.13 0.44)" style="fill:#fff;stroke:#ededed;stroke-miterlimit:10;stroke-width:0.75px"/><path d="M274,51.4a42.91,42.91,0,0,0-8.33,3.77l1.54,3.6a.64.64,0,0,1-.33.84l-2.7,1.16a.63.63,0,0,1-.83-.33l-1.27-2.93a43.41,43.41,0,0,0-8.59,8.21l3.48,2a.62.62,0,0,1,.23.86l-1.47,2.55a.64.64,0,0,1-.87.24L251,69.16a42.84,42.84,0,0,0-4.79,10H274Z" transform="translate(-0.13 0.44)" style="fill:#fff;stroke:#ededed;stroke-miterlimit:10;stroke-width:0.75px"/><path d="M341,79.16a43.18,43.18,0,0,0-3.77-8.33l-3.6,1.55a.63.63,0,0,1-.83-.33l-1.17-2.71a.63.63,0,0,1,.33-.83l2.94-1.26a43.76,43.76,0,0,0-8.21-8.6l-2,3.48a.63.63,0,0,1-.86.24l-2.55-1.48A.63.63,0,0,1,321,60l2.22-3.84a43.78,43.78,0,0,0-10-4.79V79.16Z" transform="translate(-0.13 0.44)" style="fill:#fff;stroke:#ededed;stroke-miterlimit:10;stroke-width:0.75px"/><path d="M313.22,146.14a43.18,43.18,0,0,0,8.33-3.77l-1.55-3.6a.64.64,0,0,1,.34-.83l2.7-1.17a.63.63,0,0,1,.83.33l1.27,2.94a44,44,0,0,0,8.59-8.21l-3.48-2A.62.62,0,0,1,330,129l1.47-2.55a.62.62,0,0,1,.86-.23l3.84,2.21a43.58,43.58,0,0,0,4.79-10H313.22Z" transform="translate(-0.13 0.44)" style="fill:#fff;stroke:#ededed;stroke-miterlimit:10;stroke-width:0.75px"/><path d="M330.92,98.77c-2.57,1.1-6.64,7-9.32,6.18-3.67-1.09-5.6-13-9.33-12.13-5,1.1-4.3,19.1-9.33,18.19-6.39-1.16-2.88-25.07-9.33-24.25s-2.84,24.71-9.32,24.25c-5.1-.36-4.22-18.24-9.33-18.19-3.83,0-5.56,11.46-9.33,12.13-2.71.48-6.67-5.14-9.33-5.87-3.46-.94-11.71-.8-17.13-.58,0,.09,0,.18,0,.27,0,.47,0,.94,0,1.41s0,.87,0,1.3.06,1.14.11,1.7c.06.73.13,1.46.22,2.18,0,.31.08.63.12.94.15,1.12.34,2.23.57,3.32q.08.42.18.84c0,.26.1.52.17.78s.13.55.2.82c.23.92.48,1.83.76,2.72.1.34.21.68.32,1h34.71v34.72l1,.32c.67.21,1.35.41,2,.59l1,.26.78.19,1.19.25,1.08.21c1.09.2,2.19.37,3.3.5.72.09,1.45.16,2.18.22.56,0,1.13.09,1.7.11l1.31.05,1.4,0,1.4,0,1.31-.05c.57,0,1.14-.06,1.7-.11.73-.06,1.46-.13,2.18-.22,1.11-.13,2.21-.3,3.3-.5l1.08-.21,1.19-.25.78-.19,1-.26c.69-.18,1.37-.38,2-.59l1-.32V115.79h34.71c.11-.33.22-.67.32-1,.28-.89.53-1.8.76-2.72.07-.27.14-.55.2-.82s.12-.52.17-.78.13-.56.18-.84c.23-1.09.42-2.2.57-3.32,0-.31.09-.63.12-.94.09-.72.16-1.45.22-2.18.05-.56.09-1.13.11-1.7s0-.87.05-1.3,0-.94,0-1.41v-.54C342.55,97.76,334.23,97.35,330.92,98.77Z" transform="translate(-0.13 0.44)" style="fill:#237abf;stroke:#ededed;stroke-miterlimit:10"/><path d="M256.3,99.08c2.66.73,6.62,6.35,9.33,5.87,3.77-.67,5.5-12.09,9.33-12.13,5.11,0,4.23,17.83,9.33,18.19,6.48.46,2.88-23.43,9.32-24.25s2.94,23.09,9.33,24.25c5,.91,4.34-17.09,9.33-18.19,3.73-.82,5.66,11,9.33,12.13,2.68.8,6.75-5.08,9.32-6.18,3.31-1.42,11.63-1,17.14-.54,0-.29,0-.58,0-.86,0-.44,0-.88-.05-1.31s-.06-1.14-.11-1.7c-.06-.73-.13-1.46-.22-2.18a51.43,51.43,0,0,0-1-5.7c-.07-.35-.16-.69-.25-1-.22-.91-.47-1.8-.75-2.69-.1-.34-.21-.68-.32-1H310.63V47l-1-.32c-.89-.28-1.78-.53-2.69-.75-.34-.09-.68-.18-1-.25a51.43,51.43,0,0,0-5.7-1c-.72-.09-1.45-.16-2.18-.22-.56,0-1.13-.09-1.7-.11l-1.31,0-1.4,0-1.4,0-1.31,0c-.57,0-1.14.06-1.7.11-.73.06-1.46.13-2.18.22a51.43,51.43,0,0,0-5.7,1c-.35.07-.69.16-1,.25-.91.22-1.8.47-2.69.75l-1,.32V81.75H241.88c-.11.33-.22.67-.32,1-.28.89-.53,1.78-.75,2.69-.09.34-.18.68-.25,1a51.43,51.43,0,0,0-1,5.7c-.09.72-.16,1.45-.22,2.18-.05.56-.09,1.13-.11,1.7s0,.87,0,1.31,0,.75,0,1.13C244.59,98.28,252.84,98.14,256.3,99.08Z" transform="translate(-0.13 0.44)" style="fill:#237abf;stroke:#ededed;stroke-miterlimit:10"/></g><path d="M90.46,94.83h7.41v21.56H91.42v-2.47A20,20,0,0,1,80.1,117c-11.44,0-21.44-7.59-21.44-21.38,0-12.89,9.64-22,22.82-22,7,0,13,2.35,16.93,6.86l-4.94,4.82a15.66,15.66,0,0,0-11.62-4.82c-9,0-15.3,6.09-15.3,15.06,0,9.7,6.81,14.76,14.27,14.76A15,15,0,0,0,90.46,107Z" transform="translate(-0.13 0.44)" style="fill:#fff"/><path d="M131.48,106.93l4,4.64c-2.83,3.43-7.35,5.24-12.89,5.24-10.78,0-17.76-6.93-17.76-16.5s7-16.44,16.56-16.44c9,0,16.2,6,16.26,16.08L113,104.76c1.56,3.68,5.06,5.67,9.75,5.67A11.63,11.63,0,0,0,131.48,106.93Zm-19.4-7V100l18.19-3.5a8.79,8.79,0,0,0-8.91-6.56C115.88,89.89,112.08,93.74,112.08,99.89Z" transform="translate(-0.13 0.44)" style="fill:#fff"/><path d="M141.17,113.2l2.9-5.72a21.68,21.68,0,0,0,11.2,3.19c4.75,0,6.74-1.33,6.74-3.56,0-6.14-19.87-.36-19.87-13.19,0-6.08,5.48-10,14.15-10,4.28,0,9.16,1,12.05,2.77l-2.89,5.72A17.62,17.62,0,0,0,156.23,90c-4.58,0-6.74,1.51-6.74,3.61,0,6.51,19.87.73,19.87,13.31,0,6-5.54,9.94-14.57,9.94C149.43,116.81,144.07,115.24,141.17,113.2Z" transform="translate(-0.13 0.44)" style="fill:#fff"/><path d="M193.94,114.64a11.82,11.82,0,0,1-7.23,2.17c-7.05,0-11.08-3.73-11.08-10.84V77.12h7.52v7.35h8.62v6h-8.62v15.3c0,3.13,1.63,4.82,4.46,4.82a6.75,6.75,0,0,0,4.22-1.33Z" transform="translate(-0.13 0.44)" style="fill:#fff"/><path d="M230.49,84.23v32.16h-7.16v-4.16c-2.53,3.07-6.27,4.58-10.66,4.58-9.4,0-16.26-6.5-16.26-16.5s6.86-16.44,16.26-16.44A13.38,13.38,0,0,1,223,88.14V84.23Zm-7.4,16.08c0-6.14-4.1-10.06-9.58-10.06S204,94.17,204,100.31s4.1,10.06,9.52,10.06S223.09,106.45,223.09,100.31Z" transform="translate(-0.13 0.44)" style="fill:#fff"/><path d="M356.73,106.33V71.7h7.53v34.09c0,3.13,1.51,4.82,4.52,4.82a6.54,6.54,0,0,0,2.71-.61l.36,6a13,13,0,0,1-4.52.78C360.65,116.81,356.73,113,356.73,106.33Z" transform="translate(-0.13 0.44)" style="fill:#fff"/><path d="M400.4,106.93l4,4.64c-2.84,3.43-7.35,5.24-12.89,5.24-10.78,0-17.77-6.93-17.77-16.5s7-16.44,16.56-16.44c9,0,16.2,6,16.26,16.08l-24.63,4.81c1.57,3.68,5.06,5.67,9.76,5.67A11.62,11.62,0,0,0,400.4,106.93Zm-19.39-7V100l18.19-3.5a8.8,8.8,0,0,0-8.92-6.56C384.8,89.89,381,93.74,381,99.89Z" transform="translate(-0.13 0.44)" style="fill:#fff"/><path d="M451.59,93v23.37h-7.82V105.55H421.84v10.84h-7.71V93c0-12.65,7.53-19.39,18.73-19.39S451.59,80.37,451.59,93Zm-7.82,6V92.3c0-8-4.28-11.81-11-11.81s-11,3.8-11,11.81V99Z" transform="translate(-0.13 0.44)" style="fill:#fff"/><path d="M496,100.31c0,10-6.92,16.5-16.32,16.5a13.23,13.23,0,0,1-10.3-4.34v15.6h-7.52V84.23H469v4.21c2.53-3.07,6.27-4.57,10.66-4.57C489.06,83.87,496,90.37,496,100.31Zm-7.64,0c0-6.14-4.1-10.06-9.52-10.06s-9.58,3.92-9.58,10.06,4.16,10.06,9.58,10.06S488.34,106.45,488.34,100.31Z" transform="translate(-0.13 0.44)" style="fill:#fff"/><path d="M537.3,100.31c0,10-6.92,16.5-16.32,16.5a13.23,13.23,0,0,1-10.3-4.34v15.6h-7.53V84.23h7.17v4.21c2.53-3.07,6.26-4.57,10.66-4.57C530.38,83.87,537.3,90.37,537.3,100.31Zm-7.65,0c0-6.14-4.09-10.06-9.51-10.06s-9.58,3.92-9.58,10.06,4.16,10.06,9.58,10.06S529.65,106.45,529.65,100.31Z" transform="translate(-0.13 0.44)" style="fill:#fff"/></svg>