<svg id="Calque_1" data-name="Calque 1" xmlns="http://www.w3.org/2000/svg" viewBox="0 0 198.43 198.43"><rect width="198.43" height="198.43" style="fill:none"/><g id="logo"><path d="M41.41,122.76A53.07,53.07,0,0,0,46,132.93L50.41,131a.78.78,0,0,1,1,.4l1.42,3.31a.77.77,0,0,1-.4,1l-3.58,1.54a53.34,53.34,0,0,0,10,10.5l2.45-4.26a.78.78,0,0,1,1.06-.28l3.12,1.8a.78.78,0,0,1,.28,1.06l-2.7,4.68a53.09,53.09,0,0,0,12.19,5.85V122.76Z" style="fill:#e6007e;stroke:#ededed;stroke-miterlimit:10;stroke-width:0.915572851896286px"/><path d="M75.3,41a52.16,52.16,0,0,0-10.17,4.6L67,50a.77.77,0,0,1-.41,1l-3.3,1.42a.76.76,0,0,1-1-.4l-1.55-3.58a53.57,53.57,0,0,0-10.49,10l4.25,2.46A.78.78,0,0,1,54.8,62L53,65.1a.77.77,0,0,1-1.06.28l-4.68-2.7a53.16,53.16,0,0,0-5.85,12.2H75.3Z" style="fill:#e6007e;stroke:#ededed;stroke-miterlimit:10;stroke-width:0.915572851896286px"/><path d="M157.06,74.88a53.35,53.35,0,0,0-4.61-10.17l-4.39,1.89a.78.78,0,0,1-1-.4l-1.42-3.3a.77.77,0,0,1,.41-1l3.57-1.54a53.06,53.06,0,0,0-10-10.5l-2.45,4.26a.78.78,0,0,1-1.06.28L133,52.58a.77.77,0,0,1-.29-1l2.7-4.68A52.71,52.71,0,0,0,123.18,41V74.88Z" style="fill:#e6007e;stroke:#ededed;stroke-miterlimit:10;stroke-width:0.915572851896286px"/><path d="M123.17,156.65A52.79,52.79,0,0,0,133.34,152l-1.89-4.39a.76.76,0,0,1,.41-1l3.3-1.43a.77.77,0,0,1,1,.41l1.55,3.58a53.57,53.57,0,0,0,10.49-10L144,136.72a.78.78,0,0,1-.29-1.06l1.8-3.11a.77.77,0,0,1,1.06-.28l4.68,2.7a53.36,53.36,0,0,0,5.85-12.2H123.17Z" style="fill:#e6007e;stroke:#ededed;stroke-miterlimit:10;stroke-width:0.915572851896286px"/><path d="M144.78,98.82c-3.14,1.35-8.11,8.52-11.39,7.54-4.47-1.33-6.82-15.8-11.38-14.8-6.09,1.35-5.25,23.32-11.39,22.21-7.8-1.42-3.52-30.61-11.39-29.61s-3.47,30.16-11.38,29.61c-6.23-.44-5.15-22.28-11.39-22.21-4.67,0-6.79,14-11.39,14.8-3.31.6-8.14-6.27-11.38-7.15-4.23-1.16-14.31-1-20.92-.71,0,.1,0,.21,0,.32,0,.57,0,1.14,0,1.72s0,1.06.06,1.59c0,.69.07,1.39.13,2.07.08.89.16,1.78.27,2.66,0,.38.1.77.15,1.15.18,1.37.41,2.72.7,4,.06.34.13.69.22,1s.12.63.2,1,.16.67.25,1c.28,1.12.58,2.24.92,3.32.13.42.26.83.4,1.23H78.46V162l1.23.39q1.23.39,2.49.72l1.26.32,1,.23,1.45.31c.44.09.88.18,1.32.25,1.33.25,2.68.45,4,.61.88.11,1.77.2,2.66.27.69.06,1.38.11,2.08.13l1.6.07,1.71,0,1.7,0,1.6-.07c.7,0,1.4-.07,2.08-.13.89-.07,1.78-.16,2.66-.27,1.36-.16,2.7-.36,4-.61.44-.07.88-.16,1.32-.25l1.45-.31,1-.23,1.26-.32q1.26-.33,2.49-.72L120,162V119.59h42.38q.2-.6.39-1.23c.34-1.08.64-2.2.92-3.32.09-.33.17-.67.25-1s.14-.63.21-1,.15-.69.22-1q.42-2,.69-4c.05-.38.11-.77.15-1.15.11-.88.19-1.77.27-2.66.06-.68.11-1.38.13-2.07,0-.53,0-1.07.06-1.59s0-1.15,0-1.72c0-.22,0-.44,0-.66C159,97.59,148.82,97.09,144.78,98.82Z" style="fill:#237abf;stroke:#ededed;stroke-miterlimit:10;stroke-width:1.22076380252838px"/><path d="M53.69,99.21c3.24.88,8.07,7.75,11.38,7.15,4.6-.82,6.72-14.75,11.39-14.8,6.24-.07,5.16,21.77,11.39,22.21,7.91.55,3.52-28.61,11.38-29.61s3.59,28.19,11.39,29.61c6.14,1.11,5.3-20.86,11.39-22.21,4.56-1,6.91,13.47,11.38,14.8,3.28,1,8.25-6.19,11.39-7.54,4-1.73,14.19-1.23,20.92-.66,0-.35,0-.71,0-1,0-.54,0-1.08-.06-1.6,0-.7-.07-1.39-.13-2.08-.08-.89-.16-1.78-.27-2.66a64.91,64.91,0,0,0-1.22-7c-.09-.42-.2-.84-.31-1.25-.27-1.11-.57-2.2-.91-3.29-.13-.41-.26-.83-.39-1.23H120V35.67c-.4-.14-.82-.27-1.23-.39-1.09-.35-2.17-.65-3.28-.92-.42-.11-.83-.22-1.26-.3a61.71,61.71,0,0,0-7-1.22c-.88-.11-1.77-.2-2.66-.27-.68-.06-1.38-.11-2.08-.14-.52,0-1.06,0-1.6-.06l-1.7,0-1.71,0c-.54,0-1.08,0-1.6.06-.7,0-1.39.08-2.08.14-.89.07-1.78.16-2.66.27a61.71,61.71,0,0,0-7,1.22c-.43.08-.84.19-1.26.3-1.11.27-2.19.57-3.28.92-.41.12-.83.25-1.23.39V78H36.09c-.14.4-.27.82-.4,1.23-.34,1.09-.64,2.18-.91,3.29-.11.41-.22.83-.31,1.25a64.91,64.91,0,0,0-1.22,7c-.11.88-.19,1.77-.27,2.66-.06.69-.11,1.38-.13,2.08,0,.52-.05,1.06-.06,1.6s0,.92,0,1.39C39.38,98.23,49.46,98.05,53.69,99.21Z" style="fill:#237abf;stroke:#ededed;stroke-miterlimit:10;stroke-width:1.22076380252838px"/></g></svg>