<svg id="Calque_1" data-name="Calque 1" xmlns="http://www.w3.org/2000/svg" viewBox="0 0 595.28 198.43"><rect width="595.28" height="198.43" style="fill:none"/><g id="logo"><path d="M246.12,118.82a43.18,43.18,0,0,0,3.77,8.33l3.6-1.55a.63.63,0,0,1,.83.33l1.16,2.71a.63.63,0,0,1-.33.83l-2.93,1.26a43.76,43.76,0,0,0,8.21,8.6l2-3.48a.64.64,0,0,1,.87-.24l2.55,1.48a.62.62,0,0,1,.23.86l-2.21,3.84a43.38,43.38,0,0,0,10,4.79V118.82Z" style="fill:#e6007e;stroke:#ededed;stroke-miterlimit:10;stroke-width:0.75px"/><path d="M273.87,51.84a43.83,43.83,0,0,0-8.33,3.78l1.55,3.59a.64.64,0,0,1-.33.84l-2.71,1.16a.63.63,0,0,1-.83-.33L262,58a43.46,43.46,0,0,0-8.6,8.21l3.49,2a.64.64,0,0,1,.23.87l-1.47,2.55a.65.65,0,0,1-.87.23l-3.83-2.22a43.27,43.27,0,0,0-4.8,10h27.76Z" style="fill:#e6007e;stroke:#ededed;stroke-miterlimit:10;stroke-width:0.75px"/><path d="M340.85,79.6a43.83,43.83,0,0,0-3.78-8.33l-3.59,1.55a.64.64,0,0,1-.84-.33l-1.16-2.71a.63.63,0,0,1,.33-.83l2.93-1.26a43.48,43.48,0,0,0-8.21-8.6l-2,3.49a.64.64,0,0,1-.87.23l-2.55-1.48a.63.63,0,0,1-.23-.86l2.21-3.84a43.38,43.38,0,0,0-10-4.79V79.6Z" style="fill:#e6007e;stroke:#ededed;stroke-miterlimit:10;stroke-width:0.75px"/><path d="M313.09,146.58a43.18,43.18,0,0,0,8.33-3.77l-1.55-3.6a.63.63,0,0,1,.33-.83l2.71-1.17a.64.64,0,0,1,.83.34l1.26,2.93a43.76,43.76,0,0,0,8.6-8.21l-3.49-2a.65.65,0,0,1-.23-.87l1.47-2.55a.64.64,0,0,1,.87-.23l3.83,2.21a43.2,43.2,0,0,0,4.8-10H313.09Z" style="fill:#e6007e;stroke:#ededed;stroke-miterlimit:10;stroke-width:0.75px"/><path d="M330.79,99.21c-2.57,1.1-6.65,7-9.33,6.18-3.66-1.09-5.59-13-9.32-12.13-5,1.1-4.3,19.11-9.33,18.19-6.39-1.16-2.89-25.07-9.33-24.25s-2.85,24.71-9.33,24.25c-5.1-.35-4.22-18.24-9.33-18.19-3.82,0-5.56,11.46-9.32,12.13-2.71.48-6.67-5.14-9.33-5.86-3.46-1-11.72-.81-17.14-.59v.27c0,.47,0,.94,0,1.41s0,.87,0,1.3.06,1.14.11,1.7c.06.73.13,1.46.22,2.18,0,.31.08.63.12.94.15,1.12.34,2.23.57,3.32q.07.42.18.84c0,.26.1.52.17.78s.13.55.2.82c.23.92.48,1.83.76,2.72.1.34.21.68.32,1h34.71V151l1,.32c.67.21,1.35.41,2,.59l1,.26.78.19,1.19.25,1.08.21c1.09.2,2.19.37,3.3.5.72.09,1.45.16,2.18.22.56,0,1.13.09,1.7.11l1.31.05,1.4,0,1.4,0,1.31-.05c.57,0,1.14-.06,1.7-.11.73-.06,1.46-.13,2.18-.22,1.11-.13,2.21-.3,3.3-.5l1.08-.21,1.19-.25.78-.19,1-.26c.69-.18,1.37-.38,2-.59l1-.32V116.23h34.71c.11-.33.22-.67.32-1,.28-.89.53-1.8.76-2.72.07-.27.14-.55.2-.82s.12-.52.17-.78.13-.56.18-.84c.23-1.09.42-2.2.57-3.32,0-.31.09-.63.12-.94.09-.72.16-1.45.22-2.18.05-.56.09-1.13.11-1.7s0-.87.05-1.3,0-.94,0-1.41c0-.18,0-.36,0-.54C342.42,98.2,334.1,97.79,330.79,99.21Z" style="fill:#237abf;stroke:#ededed;stroke-miterlimit:10"/><path d="M256.17,99.53c2.66.72,6.62,6.34,9.33,5.86,3.76-.67,5.5-12.08,9.32-12.13,5.11-.05,4.23,17.84,9.33,18.19,6.48.46,2.89-23.43,9.33-24.25s2.94,23.09,9.33,24.25c5,.92,4.34-17.09,9.33-18.19,3.73-.82,5.66,11,9.32,12.13,2.68.8,6.76-5.08,9.33-6.18,3.31-1.42,11.63-1,17.13-.54,0-.29,0-.58,0-.86,0-.44,0-.88-.05-1.31s-.06-1.14-.11-1.7c-.06-.73-.13-1.46-.22-2.18a51.43,51.43,0,0,0-1-5.7c-.07-.35-.16-.69-.25-1-.22-.91-.47-1.8-.75-2.69-.1-.34-.21-.68-.32-1H310.5V47.48l-1-.32c-.89-.28-1.78-.53-2.69-.75-.34-.09-.68-.18-1-.25a51.43,51.43,0,0,0-5.7-1c-.72-.09-1.45-.16-2.18-.22-.56,0-1.13-.09-1.7-.11l-1.31,0-1.4,0-1.4,0-1.31,0c-.57,0-1.14.06-1.7.11-.73.06-1.46.13-2.18.22a51.43,51.43,0,0,0-5.7,1c-.35.07-.69.16-1,.25-.91.22-1.8.47-2.69.75l-1,.32V82.19H241.75c-.11.33-.22.67-.32,1-.28.89-.53,1.78-.75,2.69-.09.34-.18.68-.25,1a51.43,51.43,0,0,0-1,5.7c-.09.72-.16,1.45-.22,2.18-.05.56-.09,1.13-.11,1.7s0,.87,0,1.31,0,.75,0,1.13C244.45,98.72,252.71,98.58,256.17,99.53Z" style="fill:#237abf;stroke:#ededed;stroke-miterlimit:10"/></g><path d="M90.33,95.27h7.4v21.56H91.29v-2.47A20,20,0,0,1,80,117.43c-11.45,0-21.44-7.59-21.44-21.38,0-12.89,9.63-22,22.82-22,7.05,0,13,2.35,16.93,6.87l-4.94,4.81a15.67,15.67,0,0,0-11.63-4.81c-9,0-15.29,6.08-15.29,15,0,9.7,6.8,14.76,14.27,14.76a15,15,0,0,0,9.64-3.32Z" style="fill:#237abf"/><path d="M131.34,107.38l4,4.63c-2.83,3.44-7.35,5.24-12.89,5.24-10.78,0-17.77-6.92-17.77-16.5s7-16.44,16.56-16.44c9,0,16.21,6,16.27,16.08l-24.64,4.82c1.57,3.67,5.06,5.66,9.76,5.66A11.65,11.65,0,0,0,131.34,107.38Zm-19.39-7v.06l18.19-3.49a8.8,8.8,0,0,0-8.92-6.57C115.74,90.33,112,94.18,112,100.33Z" style="fill:#237abf"/><path d="M141,113.64l2.89-5.72a21.71,21.71,0,0,0,11.2,3.19c4.76,0,6.75-1.33,6.75-3.55,0-6.15-19.88-.37-19.88-13.19,0-6.09,5.49-10.06,14.16-10.06,4.27,0,9.15,1,12,2.77l-2.89,5.72a17.56,17.56,0,0,0-9.21-2.41c-4.58,0-6.75,1.51-6.75,3.61,0,6.51,19.88.73,19.88,13.31,0,6-5.54,9.94-14.58,9.94C149.29,117.25,143.93,115.69,141,113.64Z" style="fill:#237abf"/><path d="M193.8,115.08a11.82,11.82,0,0,1-7.23,2.17c-7,0-11.08-3.73-11.08-10.84V77.56H183v7.35h8.61v6H183v15.3c0,3.13,1.63,4.82,4.46,4.82a6.72,6.72,0,0,0,4.21-1.33Z" style="fill:#237abf"/><path d="M230.36,84.67v32.16h-7.17v-4.16c-2.52,3.08-6.26,4.58-10.66,4.58-9.39,0-16.26-6.5-16.26-16.5s6.87-16.44,16.26-16.44a13.36,13.36,0,0,1,10.3,4.27V84.67ZM223,100.75c0-6.14-4.09-10.06-9.57-10.06s-9.52,3.92-9.52,10.06,4.1,10.06,9.52,10.06S223,106.89,223,100.75Z" style="fill:#237abf"/><path d="M356.6,106.77V72.14h7.53v34.09c0,3.13,1.5,4.82,4.52,4.82a6.75,6.75,0,0,0,2.71-.6l.36,6a13,13,0,0,1-4.52.78C360.52,117.25,356.6,113.46,356.6,106.77Z" style="fill:#237abf"/><path d="M400.27,107.38l4,4.63c-2.83,3.44-7.35,5.24-12.89,5.24-10.78,0-17.76-6.92-17.76-16.5s7-16.44,16.56-16.44c9,0,16.2,6,16.26,16.08l-24.63,4.82c1.56,3.67,5.06,5.66,9.75,5.66A11.65,11.65,0,0,0,400.27,107.38Zm-19.4-7v.06l18.19-3.49a8.78,8.78,0,0,0-8.91-6.57C384.67,90.33,380.87,94.18,380.87,100.33Z" style="fill:#237abf"/><path d="M451.46,93.46v23.37h-7.83V106H421.71v10.84H414V93.46c0-12.65,7.53-19.39,18.73-19.39S451.46,80.81,451.46,93.46Zm-7.83,6V92.74c0-8-4.27-11.8-11-11.8s-11,3.79-11,11.8v6.68Z" style="fill:#169539"/><path d="M495.85,100.75c0,10-6.93,16.5-16.32,16.5a13.21,13.21,0,0,1-10.3-4.33v15.59H461.7V84.67h7.17v4.21c2.53-3.07,6.26-4.57,10.66-4.57C488.92,84.31,495.85,90.81,495.85,100.75Zm-7.65,0c0-6.14-4.09-10.06-9.51-10.06s-9.58,3.92-9.58,10.06,4.16,10.06,9.58,10.06S488.2,106.89,488.2,100.75Z" style="fill:#169539"/><path d="M537.17,100.75c0,10-6.93,16.5-16.32,16.5a13.21,13.21,0,0,1-10.3-4.33v15.59H503V84.67h7.17v4.21c2.53-3.07,6.26-4.57,10.66-4.57C530.24,84.31,537.17,90.81,537.17,100.75Zm-7.65,0c0-6.14-4.1-10.06-9.52-10.06s-9.57,3.92-9.57,10.06,4.15,10.06,9.57,10.06S529.52,106.89,529.52,100.75Z" style="fill:#169539"/></svg>