<svg width="34" height="31" viewBox="0 0 34 31" fill="none" xmlns="http://www.w3.org/2000/svg">
<path d="M33.6583 7.52362L29.6208 4.50412C29.3464 4.33317 29.0481 4.20146 28.7351 4.11307C28.4233 4.01513 28.0988 3.96068 27.7712 3.95137H16.15L17.5117 12.2014H27.7712C28.05 12.2014 28.3985 12.1403 28.7334 12.0397C29.0683 11.939 29.3913 11.8004 29.6191 11.6503L33.6566 8.62747C33.8861 8.47732 34 8.27767 34 8.07637C34 7.87507 33.8861 7.67542 33.6583 7.52362ZM14.45 0.651367H12.75C12.5246 0.651367 12.3084 0.738287 12.149 0.893004C11.9896 1.04772 11.9 1.25756 11.9 1.47637V7.25137H6.2288C5.9466 7.25137 5.5998 7.31242 5.2649 7.41472C4.9283 7.51372 4.607 7.65067 4.3792 7.80412L0.3417 10.8236C0.1122 10.9738 0 11.1751 0 11.3764C0 11.576 0.1122 11.7757 0.3417 11.9291L4.3792 14.9519C4.607 15.1021 4.9283 15.2407 5.2649 15.3397C5.5998 15.4403 5.9466 15.5014 6.2288 15.5014H11.9V29.5264C11.9 29.7452 11.9896 29.955 12.149 30.1097C12.3084 30.2645 12.5246 30.3514 12.75 30.3514H14.45C14.6754 30.3514 14.8916 30.2645 15.051 30.1097C15.2104 29.955 15.3 29.7452 15.3 29.5264V1.47637C15.3 1.25756 15.2104 1.04772 15.051 0.893004C14.8916 0.738287 14.6754 0.651367 14.45 0.651367Z" fill="#237ABF"/>
</svg>
