<svg width="42" height="42" viewBox="0 0 42 42" fill="none" xmlns="http://www.w3.org/2000/svg">
<path d="M14.75 2.25H4.33333C3.7808 2.25 3.25089 2.46949 2.86019 2.86019C2.46949 3.25089 2.25 3.7808 2.25 4.33333V14.75C2.25 15.3025 2.46949 15.8324 2.86019 16.2231C3.25089 16.6138 3.7808 16.8333 4.33333 16.8333H14.75C15.3025 16.8333 15.8324 16.6138 16.2231 16.2231C16.6138 15.8324 16.8333 15.3025 16.8333 14.75V4.33333C16.8333 3.7808 16.6138 3.25089 16.2231 2.86019C15.8324 2.46949 15.3025 2.25 14.75 2.25ZM14.75 25.1667H4.33333C3.7808 25.1667 3.25089 25.3862 2.86019 25.7769C2.46949 26.1676 2.25 26.6975 2.25 27.25V37.6667C2.25 38.2192 2.46949 38.7491 2.86019 39.1398C3.25089 39.5305 3.7808 39.75 4.33333 39.75H14.75C15.3025 39.75 15.8324 39.5305 16.2231 39.1398C16.6138 38.7491 16.8333 38.2192 16.8333 37.6667V27.25C16.8333 26.6975 16.6138 26.1676 16.2231 25.7769C15.8324 25.3862 15.3025 25.1667 14.75 25.1667ZM37.6667 2.25H27.25C26.6975 2.25 26.1676 2.46949 25.7769 2.86019C25.3862 3.25089 25.1667 3.7808 25.1667 4.33333V14.75C25.1667 15.3025 25.3862 15.8324 25.7769 16.2231C26.1676 16.6138 26.6975 16.8333 27.25 16.8333H37.6667C38.2192 16.8333 38.7491 16.6138 39.1398 16.2231C39.5305 15.8324 39.75 15.3025 39.75 14.75V4.33333C39.75 3.7808 39.5305 3.25089 39.1398 2.86019C38.7491 2.46949 38.2192 2.25 37.6667 2.25ZM37.6667 25.1667H27.25C26.6975 25.1667 26.1676 25.3862 25.7769 25.7769C25.3862 26.1676 25.1667 26.6975 25.1667 27.25V37.6667C25.1667 38.2192 25.3862 38.7491 25.7769 39.1398C26.1676 39.5305 26.6975 39.75 27.25 39.75H37.6667C38.2192 39.75 38.7491 39.5305 39.1398 39.1398C39.5305 38.7491 39.75 38.2192 39.75 37.6667V27.25C39.75 26.6975 39.5305 26.1676 39.1398 25.7769C38.7491 25.3862 38.2192 25.1667 37.6667 25.1667Z" fill="#237ABF" stroke="#237ABF" stroke-width="3.33333" stroke-linejoin="round"/>
</svg>
