<svg width="34" height="34" viewBox="0 0 34 34" fill="none" xmlns="http://www.w3.org/2000/svg">
<path d="M23.4744 31.1674C23.8506 31.1695 24.2236 31.0967 24.5714 30.9532C24.9192 30.8097 25.2349 30.5984 25.5002 30.3315L29.3394 26.4924C29.6032 26.2269 29.7513 25.8679 29.7513 25.4936C29.7513 25.1193 29.6032 24.7603 29.3394 24.4949L23.6727 18.8282C23.4073 18.5643 23.0482 18.4162 22.674 18.4162C22.2997 18.4162 21.9406 18.5643 21.6752 18.8282L19.4085 21.0807C17.8392 20.6623 16.3858 19.892 15.1585 18.8282C14.0976 17.599 13.3277 16.1462 12.906 14.5782L15.1585 12.3115C15.4224 12.0461 15.5705 11.687 15.5705 11.3128C15.5705 10.9385 15.4224 10.5795 15.1585 10.314L9.49188 4.64736C9.22645 4.3835 8.86739 4.2354 8.49313 4.2354C8.11886 4.2354 7.75981 4.3835 7.49438 4.64736L3.66938 8.50069C3.40252 8.76595 3.19117 9.0817 3.04767 9.42952C2.90416 9.77734 2.83137 10.1503 2.83354 10.5265C2.96207 15.9698 5.13715 21.1647 8.92521 25.0757C12.8362 28.8638 18.0311 31.0388 23.4744 31.1674ZM8.50021 7.66486L12.1694 11.334L10.3419 13.1615C10.1688 13.3237 10.0392 13.5266 9.96492 13.7519C9.89066 13.9771 9.87415 14.2174 9.91688 14.4507C10.4464 16.817 11.5674 19.0104 13.1752 20.8257C14.989 22.4355 17.183 23.5569 19.5502 24.084C19.78 24.1321 20.018 24.1222 20.2431 24.0555C20.4681 23.9887 20.673 23.8671 20.8394 23.7015L22.6669 21.8315L26.336 25.5007L23.5027 28.334C18.8047 28.2131 14.322 26.3381 10.9369 23.0782C7.6685 19.6917 5.78816 15.2031 5.66688 10.4982L8.50021 7.66486ZM28.3335 15.584H31.1669C31.2036 13.8996 30.8989 12.2252 30.2712 10.6617C29.6434 9.09818 28.7056 7.67795 27.5143 6.48661C26.3229 5.29526 24.9027 4.35746 23.3392 3.72971C21.7757 3.10197 20.1013 2.79729 18.4169 2.83402V5.66736C19.7314 5.62188 21.0412 5.84729 22.265 6.32955C23.4887 6.81182 24.6001 7.54064 25.5302 8.47071C26.4603 9.40078 27.1891 10.5122 27.6713 11.7359C28.1536 12.9597 28.379 14.2695 28.3335 15.584Z" fill="#237ABF"/>
<path d="M18.4165 11.3343C21.3915 11.3343 22.6665 12.6093 22.6665 15.5843H25.4998C25.4998 11.0226 22.9782 8.50098 18.4165 8.50098V11.3343Z" fill="#237ABF"/>
</svg>
