<svg width="34" height="34" viewBox="0 0 34 34" fill="none" xmlns="http://www.w3.org/2000/svg">
<path d="M9.6441 0.000976563C9.95971 0.000976563 10.2624 0.126351 10.4856 0.34952C10.7087 0.572688 10.8341 0.875369 10.8341 1.19098V3.41628H23.613V1.20628C23.613 0.890669 23.7384 0.587988 23.9615 0.36482C24.1847 0.141651 24.4874 0.0162766 24.803 0.0162766C25.1186 0.0162766 25.4213 0.141651 25.6445 0.36482C25.8676 0.587988 25.993 0.890669 25.993 1.20628V3.41628H30.6C31.5014 3.41628 32.366 3.77426 33.0036 4.41151C33.6411 5.04877 33.9995 5.91314 34 6.81458V30.6027C33.9995 31.5041 33.6411 32.3685 33.0036 33.0057C32.366 33.643 31.5014 34.001 30.6 34.001H3.4C2.49856 34.001 1.63401 33.643 0.996438 33.0057C0.358863 32.3685 0.000450721 31.5041 0 30.6027L0 6.81458C0.000450721 5.91314 0.358863 5.04877 0.996438 4.41151C1.63401 3.77426 2.49856 3.41628 3.4 3.41628H8.4541V1.18928C8.45455 0.873964 8.58012 0.571719 8.80324 0.348918C9.02636 0.126118 9.32879 0.000976241 9.6441 0.000976563V0.000976563ZM2.38 13.1624V30.6027C2.38 30.7366 2.40638 30.8693 2.45764 30.993C2.5089 31.1168 2.58404 31.2292 2.67875 31.3239C2.77347 31.4186 2.88591 31.4938 3.00966 31.545C3.13341 31.5963 3.26605 31.6227 3.4 31.6227H30.6C30.7339 31.6227 30.8666 31.5963 30.9903 31.545C31.1141 31.4938 31.2265 31.4186 31.3213 31.3239C31.416 31.2292 31.4911 31.1168 31.5424 30.993C31.5936 30.8693 31.62 30.7366 31.62 30.6027V13.1862L2.38 13.1624ZM11.3339 24.8533V27.6855H8.5V24.8533H11.3339ZM18.4161 24.8533V27.6855H15.5839V24.8533H18.4161ZM25.5 24.8533V27.6855H22.6661V24.8533H25.5ZM11.3339 18.0924V20.9246H8.5V18.0924H11.3339ZM18.4161 18.0924V20.9246H15.5839V18.0924H18.4161ZM25.5 18.0924V20.9246H22.6661V18.0924H25.5ZM8.4541 5.79458H3.4C3.26605 5.79458 3.13341 5.82096 3.00966 5.87222C2.88591 5.92348 2.77347 5.99861 2.67875 6.09333C2.58404 6.18804 2.5089 6.30049 2.45764 6.42424C2.40638 6.54799 2.38 6.68063 2.38 6.81458V10.7841L31.62 10.8079V6.81458C31.62 6.68063 31.5936 6.54799 31.5424 6.42424C31.4911 6.30049 31.416 6.18804 31.3213 6.09333C31.2265 5.99861 31.1141 5.92348 30.9903 5.87222C30.8666 5.82096 30.7339 5.79458 30.6 5.79458H25.993V7.37388C25.993 7.68948 25.8676 7.99217 25.6445 8.21533C25.4213 8.4385 25.1186 8.56388 24.803 8.56388C24.4874 8.56388 24.1847 8.4385 23.9615 8.21533C23.7384 7.99217 23.613 7.68948 23.613 7.37388V5.79458H10.8341V7.35858C10.8341 7.67418 10.7087 7.97687 10.4856 8.20003C10.2624 8.4232 9.95971 8.54858 9.6441 8.54858C9.32849 8.54858 9.02581 8.4232 8.80264 8.20003C8.57947 7.97687 8.4541 7.67418 8.4541 7.35858V5.79458Z" fill="#237ABF"/>
</svg>
