<svg width="26" height="28" viewBox="0 0 26 28" fill="none" xmlns="http://www.w3.org/2000/svg">
<path d="M17.25 13.584V5.08398L13 0.833984L8.75 5.08398V7.91732H0.25V27.7507H25.75V13.584H17.25ZM5.91667 24.9173H3.08333V22.084H5.91667V24.9173ZM5.91667 19.2507H3.08333V16.4173H5.91667V19.2507ZM5.91667 13.584H3.08333V10.7507H5.91667V13.584ZM14.4167 24.9173H11.5833V22.084H14.4167V24.9173ZM14.4167 19.2507H11.5833V16.4173H14.4167V19.2507ZM14.4167 13.584H11.5833V10.7507H14.4167V13.584ZM14.4167 7.91732H11.5833V5.08398H14.4167V7.91732ZM22.9167 24.9173H20.0833V22.084H22.9167V24.9173ZM22.9167 19.2507H20.0833V16.4173H22.9167V19.2507Z" fill="#237ABF"/>
</svg>
