<svg width="101" height="116" viewBox="0 0 101 116" fill="none" xmlns="http://www.w3.org/2000/svg">
<path d="M79.3571 29C79.3571 45.018 66.4391 58 50.2971 58C34.5609 58 21.44 45.018 21.44 29C21.44 12.9843 34.5609 0 50.2971 0C66.4391 0 79.3571 12.9843 79.3571 29ZM64.7257 82.0156C58.7063 83.6242 53.9042 89.3109 53.9042 96.0625V101.5C53.9042 102.452 54.4904 103.38 55.1667 104.06L58.7739 107.685C60.1717 109.112 62.4712 109.112 63.869 107.685C65.2893 106.28 65.2893 103.97 63.869 102.565L61.1185 100.005V96.0625C61.1185 92.0523 64.5453 88.8125 68.3328 88.8125C72.5261 88.8125 75.75 92.0523 75.75 96.0625V100.005L73.2025 102.565C71.7822 103.97 71.7822 106.28 73.2025 107.685C74.6002 109.112 76.8998 109.112 78.2975 107.685L81.9047 104.06C82.581 103.38 82.9643 102.452 82.9643 101.5V96.0625C82.9643 89.3109 78.3652 83.6242 72.1429 82.0156V69.9625C88.7132 74.018 101 88.8352 101 106.938V108.75C101 112.76 97.7761 116 93.7857 116H7.21429C3.23065 116 0 112.76 0 108.75V106.938C0 89.0391 12.2936 74.018 28.8571 69.9625V83.8961C23.6493 85.4594 19.8393 90.3078 19.8393 96.0625C19.8393 103.063 25.498 108.75 32.4643 108.75C39.4306 108.75 45.0893 103.063 45.0893 96.0625C45.0893 90.3078 41.2792 85.4594 36.0714 83.8961V68.9203C36.6801 68.8977 37.2663 68.875 37.875 68.875H63.125C63.7337 68.875 64.3199 68.8977 64.9286 68.9203L64.7257 82.0156ZM37.6721 96.0625C37.6721 99.0758 35.4627 101.5 32.2614 101.5C29.4659 101.5 26.8507 99.0758 26.8507 96.0625C26.8507 93.0492 29.4659 90.625 32.2614 90.625C35.4627 90.625 37.6721 93.0492 37.6721 96.0625Z" fill="#237ABF"/>
</svg>
