<svg width="31" height="30" viewBox="0 0 31 30" fill="none" xmlns="http://www.w3.org/2000/svg">
<path d="M20.625 1.62612L10.2211 12.03C5.86765 16.3944 2.57085 21.6973 0.58322 27.5325C0.488433 27.8085 0.473337 28.1056 0.539662 28.3898C0.605988 28.674 0.751051 28.9337 0.95822 29.1392L0.963658 29.1447C1.10782 29.2899 1.27929 29.4053 1.46819 29.484C1.65708 29.5628 1.85969 29.6034 2.06435 29.6036C2.23656 29.6034 2.40758 29.5751 2.5706 29.5196C8.40583 27.5319 13.7087 24.2351 18.0731 19.8816L28.4767 9.4778C29.5179 8.43661 30.1028 7.02445 30.1028 5.55198C30.1028 4.07951 29.5179 2.66735 28.4767 1.62615C27.9611 1.1106 27.3491 0.701641 26.6755 0.422626C26.0019 0.143611 25.28 2.90187e-06 24.5509 0C23.0784 -5.86047e-06 21.6662 0.584925 20.625 1.62612ZM16.6586 18.4674C12.7263 22.3894 7.99007 25.4119 2.7766 27.3262C4.69092 22.1127 7.71329 17.3765 11.6353 13.4442L17.8329 7.24662L22.8562 12.2699L16.6586 18.4674ZM27.0625 8.06362L24.2703 10.8557L19.2471 5.83243L22.0392 3.0403C22.3689 2.70968 22.7605 2.4473 23.1916 2.26816C23.6228 2.08902 24.085 1.99664 24.5519 1.9963C25.0188 1.99597 25.4812 2.08768 25.9126 2.2662C26.344 2.44471 26.736 2.70653 27.0662 3.03668C27.3963 3.36682 27.6581 3.75881 27.8366 4.19023C28.0151 4.62164 28.1068 5.08402 28.1065 5.55091C28.1062 6.0178 28.0138 6.48004 27.8346 6.9112C27.6555 7.34235 27.3931 7.73396 27.0625 8.06362Z" fill="white"/>
</svg>
