<svg width="40" height="40" viewBox="0 0 40 40" fill="none" xmlns="http://www.w3.org/2000/svg">
<path d="M20 26.6667C21.7681 26.6667 23.4638 25.9643 24.714 24.714C25.9643 23.4638 26.6667 21.7681 26.6667 20C26.6667 18.2319 25.9643 16.5362 24.714 15.286C23.4638 14.0357 21.7681 13.3333 20 13.3333C18.2319 13.3333 16.5362 14.0357 15.286 15.286C14.0357 16.5362 13.3333 18.2319 13.3333 20C13.3333 21.7681 14.0357 23.4638 15.286 24.714C16.5362 25.9643 18.2319 26.6667 20 26.6667ZM18.3333 6.76667V1.66667C18.3333 1.22464 18.5089 0.800716 18.8215 0.488155C19.134 0.175595 19.558 0 20 0C20.442 0 20.8659 0.175595 21.1785 0.488155C21.4911 0.800716 21.6667 1.22464 21.6667 1.66667V6.76667C24.6045 7.1378 27.3353 8.47587 29.4289 10.57C31.5224 12.6642 32.8597 15.3954 33.23 18.3333H38.3333C38.7754 18.3333 39.1993 18.5089 39.5118 18.8215C39.8244 19.134 40 19.558 40 20C40 20.442 39.8244 20.8659 39.5118 21.1785C39.1993 21.4911 38.7754 21.6667 38.3333 21.6667H33.23C32.8596 24.6051 31.5218 27.3367 29.4276 29.4309C27.3333 31.5251 24.6018 32.8629 21.6633 33.2333L21.6667 33.3333V38.3333C21.6667 38.7754 21.4911 39.1993 21.1785 39.5118C20.8659 39.8244 20.442 40 20 40C19.558 40 19.134 39.8244 18.8215 39.5118C18.5089 39.1993 18.3333 38.7754 18.3333 38.3333V33.2333C15.3949 32.8629 12.6633 31.5251 10.5691 29.4309C8.47487 27.3367 7.13711 24.6051 6.76667 21.6667C6.73334 21.6677 6.69999 21.6677 6.66667 21.6667H1.66667C1.22464 21.6667 0.800716 21.4911 0.488155 21.1785C0.175595 20.8659 0 20.442 0 20C0 19.558 0.175595 19.134 0.488155 18.8215C0.800716 18.5089 1.22464 18.3333 1.66667 18.3333H6.66667C6.69999 18.3323 6.73334 18.3323 6.76667 18.3333C7.13849 15.3961 8.47686 12.6661 10.571 10.5732C12.6651 8.48026 15.3959 7.14346 18.3333 6.77333V6.76667ZM10 20C10 22.6522 11.0536 25.1957 12.9289 27.0711C14.8043 28.9464 17.3478 30 20 30C22.6522 30 25.1957 28.9464 27.0711 27.0711C28.9464 25.1957 30 22.6522 30 20C30 17.3478 28.9464 14.8043 27.0711 12.9289C25.1957 11.0536 22.6522 10 20 10C17.3478 10 14.8043 11.0536 12.9289 12.9289C11.0536 14.8043 10 17.3478 10 20Z" fill="#E6007E"/>
</svg>
