<svg width="40" height="40" viewBox="0 0 40 40" fill="none" xmlns="http://www.w3.org/2000/svg">
<path d="M20 40.001C8.90625 40.001 0 30.971 0 20.001C0 8.90723 8.90625 0.000976562 20 0.000976562C31.0938 0.000976562 40 8.90723 40 20.001C40 30.971 31.0938 40.001 20 40.001ZM20 3.36098C10.84 3.36098 3.3525 10.841 3.3525 20.0022C3.3525 29.1635 10.84 36.6497 20 36.6497C29.16 36.6497 36.6475 29.1622 36.6475 20.0022C36.6475 10.8422 29.16 3.36098 20 3.36098ZM29.8113 21.9347H15.3575C15.0513 21.9364 14.7568 21.8168 14.5385 21.602C14.3202 21.3872 14.1958 21.0947 14.1925 20.7885V19.1022C14.1925 18.451 14.7063 17.9372 15.3575 17.9372H29.9338C30.5788 17.9372 31.0925 18.4585 31.0925 19.1022V20.776C30.9688 21.421 30.4475 21.9347 29.81 21.9347H29.8113ZM26.0675 15.4822H11.4838C11.1773 15.4846 10.8825 15.3651 10.664 15.1502C10.4456 14.9353 10.3214 14.6424 10.3188 14.336V12.6497C10.3188 12.1285 10.84 11.6147 11.4838 11.6147H26.06C26.5812 11.6147 27.095 12.136 27.095 12.6497V14.3235C27.095 14.9685 26.5813 15.4822 26.0662 15.4822H26.0675ZM11.485 24.5197H26.0687C26.7137 24.5197 27.2275 25.0335 27.2275 25.6785V27.3522C27.2288 27.6594 27.1082 27.9547 26.8922 28.1731C26.6761 28.3915 26.3822 28.5152 26.075 28.5172H11.485C10.84 28.3872 10.3263 27.8722 10.3263 27.2285V25.5485C10.32 25.0347 10.84 24.5197 11.485 24.5197Z" fill="#237ABF"/>
</svg>
