<svg width="24" height="32" viewBox="0 0 24 32" fill="none" xmlns="http://www.w3.org/2000/svg">
<path d="M21.6252 0.594727H16.844C16.4213 0.594727 16.0159 0.762639 15.717 1.06153C15.4181 1.36041 15.2502 1.76579 15.2502 2.18848C15.2502 2.61117 15.4181 3.01654 15.717 3.31543C16.0159 3.61431 16.4213 3.78223 16.844 3.78223H17.7736L15.7815 5.78769C14.113 4.48377 12.0552 3.77757 9.9377 3.78223C7.53904 3.78083 5.22745 4.68096 3.46137 6.3041C1.69529 7.92723 0.603722 10.1548 0.40314 12.5451C0.202558 14.9354 0.907615 17.3137 2.37848 19.2085C3.84935 21.1032 5.9786 22.376 8.34395 22.7744V24.501H5.6877C5.26501 24.501 4.85964 24.6689 4.56075 24.9678C4.26186 25.2667 4.09395 25.672 4.09395 26.0947C4.09395 26.5174 4.26186 26.9228 4.56075 27.2217C4.85964 27.5206 5.26501 27.6885 5.6877 27.6885H8.34395V29.8135C8.34395 30.2362 8.51186 30.6415 8.81075 30.9404C9.10964 31.2393 9.51501 31.4072 9.9377 31.4072C10.3604 31.4072 10.7658 31.2393 11.0647 30.9404C11.3635 30.6415 11.5315 30.2362 11.5315 29.8135V27.6885H14.1877C14.6104 27.6885 15.0158 27.5206 15.3147 27.2217C15.6135 26.9228 15.7815 26.5174 15.7815 26.0947C15.7815 25.672 15.6135 25.2667 15.3147 24.9678C15.0158 24.6689 14.6104 24.501 14.1877 24.501H11.5315V22.7744C13.0956 22.5095 14.5693 21.8597 15.8197 20.8834C17.0701 19.9071 18.058 18.6351 18.6943 17.1819C19.3307 15.7287 19.5955 14.14 19.4649 12.559C19.3343 10.978 18.8124 9.45428 17.9463 8.1252L20.0315 6.04004V6.96973C20.0315 7.39242 20.1994 7.79779 20.4982 8.09668C20.7971 8.39556 21.2025 8.56348 21.6252 8.56348C22.0479 8.56348 22.4533 8.39556 22.7522 8.09668C23.051 7.79779 23.219 7.39242 23.219 6.96973V2.18848C23.219 1.76579 23.051 1.36041 22.7522 1.06153C22.4533 0.762639 22.0479 0.594727 21.6252 0.594727ZM9.9377 19.7197C8.67684 19.7197 7.4443 19.3458 6.39594 18.6453C5.34758 17.9449 4.53048 16.9492 4.04797 15.7843C3.56546 14.6195 3.43921 13.3377 3.6852 12.101C3.93118 10.8644 4.53834 9.72848 5.4299 8.83692C6.32146 7.94536 7.45737 7.3382 8.694 7.09222C9.93063 6.84624 11.2124 6.97249 12.3773 7.45499C13.5422 7.9375 14.5378 8.7546 15.2383 9.80297C15.9388 10.8513 16.3127 12.0839 16.3127 13.3447C16.3127 15.0355 15.6411 16.657 14.4455 17.8525C13.25 19.0481 11.6285 19.7197 9.9377 19.7197Z" fill="#237ABF"/>
</svg>
