<svg width="30" height="32" viewBox="0 0 30 32" fill="none" xmlns="http://www.w3.org/2000/svg">
<path d="M28.5775 12.5572L28.5778 12.5573C28.7623 12.7138 28.9106 12.9085 29.0123 13.128C29.1139 13.3475 29.1666 13.5865 29.1667 13.8284C29.1667 13.8284 29.1667 13.8284 29.1667 13.8285V29.5C29.1667 29.9421 28.9911 30.366 28.6785 30.6785C28.3659 30.9911 27.942 31.1667 27.5 31.1667H17.9167C17.8062 31.1667 17.7002 31.1228 17.622 31.0447C17.5439 30.9665 17.5 30.8605 17.5 30.75V20.3334V19.5H16.6667H13.3333H12.5V20.3334V30.75C12.5 30.8605 12.4561 30.9665 12.378 31.0447C12.2998 31.1228 12.1938 31.1667 12.0833 31.1667H2.5C2.05797 31.1667 1.63405 30.9911 1.32149 30.6785C1.00893 30.366 0.833333 29.9421 0.833333 29.5V13.8284C0.833333 13.34 1.04894 12.874 1.42238 12.5572L1.42245 12.5572L13.9222 1.95235C13.9223 1.95229 13.9223 1.95224 13.9224 1.95219C14.2235 1.69702 14.6053 1.55697 15 1.55697C15.3947 1.55697 15.7767 1.69708 16.0778 1.95234L28.5775 12.5572ZM15.5391 2.58792L15 2.13053L14.4609 2.58792L1.96088 13.1929L1.66667 13.4425V13.8284V29.5V30.3334H2.5H10.8333H11.6667V29.5V19.0834C11.6667 18.9729 11.7106 18.8669 11.7887 18.7887C11.8668 18.7106 11.9728 18.6667 12.0833 18.6667H17.9167C18.0272 18.6667 18.1331 18.7106 18.2113 18.7887C18.2894 18.8669 18.3333 18.9729 18.3333 19.0834V29.5V30.3334H19.1667H27.5H28.3333V29.5V13.8284V13.4425L28.0391 13.1929L15.5391 2.58792Z" fill="black" stroke="#E6007E" stroke-width="1.66667"/>
</svg>
