<svg width="32" height="40" viewBox="0 0 32 40" fill="none" xmlns="http://www.w3.org/2000/svg">
<mask id="path-1-inside-1_117_1015" fill="white">
<path d="M8.5724 29.2857V30.7143C8.5724 30.9077 8.50172 31.0751 8.36035 31.2165C8.21898 31.3579 8.05157 31.4286 7.85812 31.4286H6.42955C6.2361 31.4286 6.06869 31.3579 5.92732 31.2165C5.78595 31.0751 5.71526 30.9077 5.71526 30.7143V29.2857C5.71526 29.0923 5.78595 28.9249 5.92732 28.7835C6.06869 28.6421 6.2361 28.5714 6.42955 28.5714H7.85812C8.05157 28.5714 8.21898 28.6421 8.36035 28.7835C8.50172 28.9249 8.5724 29.0923 8.5724 29.2857ZM8.5724 23.5714V25C8.5724 25.1935 8.50172 25.3609 8.36035 25.5022C8.21898 25.6436 8.05157 25.7143 7.85812 25.7143H6.42955C6.2361 25.7143 6.06869 25.6436 5.92732 25.5022C5.78595 25.3609 5.71526 25.1935 5.71526 25V23.5714C5.71526 23.378 5.78595 23.2106 5.92732 23.0692C6.06869 22.9278 6.2361 22.8571 6.42955 22.8571H7.85812C8.05157 22.8571 8.21898 22.9278 8.36035 23.0692C8.50172 23.2106 8.5724 23.378 8.5724 23.5714ZM14.2867 23.5714V25C14.2867 25.1935 14.216 25.3609 14.0746 25.5022C13.9333 25.6436 13.7659 25.7143 13.5724 25.7143H12.1438C11.9504 25.7143 11.783 25.6436 11.6416 25.5022C11.5002 25.3609 11.4295 25.1935 11.4295 25V23.5714C11.4295 23.378 11.5002 23.2106 11.6416 23.0692C11.783 22.9278 11.9504 22.8571 12.1438 22.8571H13.5724C13.7659 22.8571 13.9333 22.9278 14.0746 23.0692C14.216 23.2106 14.2867 23.378 14.2867 23.5714ZM8.5724 17.8571V19.2857C8.5724 19.4792 8.50172 19.6466 8.36035 19.7879C8.21898 19.9293 8.05157 20 7.85812 20H6.42955C6.2361 20 6.06869 19.9293 5.92732 19.7879C5.78595 19.6466 5.71526 19.4792 5.71526 19.2857V17.8571C5.71526 17.6637 5.78595 17.4963 5.92732 17.3549C6.06869 17.2135 6.2361 17.1429 6.42955 17.1429H7.85812C8.05157 17.1429 8.21898 17.2135 8.36035 17.3549C8.50172 17.4963 8.5724 17.6637 8.5724 17.8571ZM25.7153 29.2857V30.7143C25.7153 30.9077 25.6446 31.0751 25.5032 31.2165C25.3618 31.3579 25.1944 31.4286 25.001 31.4286H23.5724C23.379 31.4286 23.2115 31.3579 23.0702 31.2165C22.9288 31.0751 22.8581 30.9077 22.8581 30.7143V29.2857C22.8581 29.0923 22.9288 28.9249 23.0702 28.7835C23.2115 28.6421 23.379 28.5714 23.5724 28.5714H25.001C25.1944 28.5714 25.3618 28.6421 25.5032 28.7835C25.6446 28.9249 25.7153 29.0923 25.7153 29.2857ZM20.001 23.5714V25C20.001 25.1935 19.9303 25.3609 19.7889 25.5022C19.6476 25.6436 19.4801 25.7143 19.2867 25.7143H17.8581C17.6647 25.7143 17.4973 25.6436 17.3559 25.5022C17.2145 25.3609 17.1438 25.1935 17.1438 25V23.5714C17.1438 23.378 17.2145 23.2106 17.3559 23.0692C17.4973 22.9278 17.6647 22.8571 17.8581 22.8571H19.2867C19.4801 22.8571 19.6476 22.9278 19.7889 23.0692C19.9303 23.2106 20.001 23.378 20.001 23.5714ZM14.2867 17.8571V19.2857C14.2867 19.4792 14.216 19.6466 14.0746 19.7879C13.9333 19.9293 13.7659 20 13.5724 20H12.1438C11.9504 20 11.783 19.9293 11.6416 19.7879C11.5002 19.6466 11.4295 19.4792 11.4295 19.2857V17.8571C11.4295 17.6637 11.5002 17.4963 11.6416 17.3549C11.783 17.2135 11.9504 17.1429 12.1438 17.1429H13.5724C13.7659 17.1429 13.9333 17.2135 14.0746 17.3549C14.216 17.4963 14.2867 17.6637 14.2867 17.8571ZM25.7153 23.5714V25C25.7153 25.1935 25.6446 25.3609 25.5032 25.5022C25.3618 25.6436 25.1944 25.7143 25.001 25.7143H23.5724C23.379 25.7143 23.2115 25.6436 23.0702 25.5022C22.9288 25.3609 22.8581 25.1935 22.8581 25V23.5714C22.8581 23.378 22.9288 23.2106 23.0702 23.0692C23.2115 22.9278 23.379 22.8571 23.5724 22.8571H25.001C25.1944 22.8571 25.3618 22.9278 25.5032 23.0692C25.6446 23.2106 25.7153 23.378 25.7153 23.5714ZM20.001 17.8571V19.2857C20.001 19.4792 19.9303 19.6466 19.7889 19.7879C19.6476 19.9293 19.4801 20 19.2867 20H17.8581C17.6647 20 17.4973 19.9293 17.3559 19.7879C17.2145 19.6466 17.1438 19.4792 17.1438 19.2857V17.8571C17.1438 17.6637 17.2145 17.4963 17.3559 17.3549C17.4973 17.2135 17.6647 17.1429 17.8581 17.1429H19.2867C19.4801 17.1429 19.6476 17.2135 19.7889 17.3549C19.9303 17.4963 20.001 17.6637 20.001 17.8571ZM25.7153 17.8571V19.2857C25.7153 19.4792 25.6446 19.6466 25.5032 19.7879C25.3618 19.9293 25.1944 20 25.001 20H23.5724C23.379 20 23.2115 19.9293 23.0702 19.7879C22.9288 19.6466 22.8581 19.4792 22.8581 19.2857V17.8571C22.8581 17.6637 22.9288 17.4963 23.0702 17.3549C23.2115 17.2135 23.379 17.1429 23.5724 17.1429H25.001C25.1944 17.1429 25.3618 17.2135 25.5032 17.3549C25.6446 17.4963 25.7153 17.6637 25.7153 17.8571ZM20.001 37.1429H28.5724V11.4286H22.8581V12.1429C22.8581 12.7381 22.6498 13.244 22.2331 13.6607C21.8165 14.0774 21.3105 14.2857 20.7153 14.2857H10.7153C10.12 14.2857 9.61407 14.0774 9.19741 13.6607C8.78074 13.244 8.5724 12.7381 8.5724 12.1429V11.4286H2.85812V37.1429H11.4295V32.1429C11.4295 31.9494 11.5002 31.782 11.6416 31.6406C11.783 31.4993 11.9504 31.4286 12.1438 31.4286H19.2867C19.4801 31.4286 19.6476 31.4993 19.7889 31.6406C19.9303 31.782 20.001 31.9494 20.001 32.1429V37.1429ZM20.001 10.7143V3.57143C20.001 3.37798 19.9303 3.21057 19.7889 3.0692C19.6476 2.92783 19.4801 2.85714 19.2867 2.85714H17.8581C17.6647 2.85714 17.4973 2.92783 17.3559 3.0692C17.2145 3.21057 17.1438 3.37798 17.1438 3.57143V5.71429H14.2867V3.57143C14.2867 3.37798 14.216 3.21057 14.0746 3.0692C13.9333 2.92783 13.7659 2.85714 13.5724 2.85714H12.1438C11.9504 2.85714 11.783 2.92783 11.6416 3.0692C11.5002 3.21057 11.4295 3.37798 11.4295 3.57143V10.7143C11.4295 10.9077 11.5002 11.0751 11.6416 11.2165C11.783 11.3579 11.9504 11.4286 12.1438 11.4286H13.5724C13.7659 11.4286 13.9333 11.3579 14.0746 11.2165C14.216 11.0751 14.2867 10.9077 14.2867 10.7143V8.57143H17.1438V10.7143C17.1438 10.9077 17.2145 11.0751 17.3559 11.2165C17.4973 11.3579 17.6647 11.4286 17.8581 11.4286H19.2867C19.4801 11.4286 19.6476 11.3579 19.7889 11.2165C19.9303 11.0751 20.001 10.9077 20.001 10.7143ZM31.4295 10V38.5714C31.4295 38.9583 31.2882 39.2932 31.0054 39.5759C30.7227 39.8586 30.3879 40 30.001 40H1.42955C1.04264 40 0.707822 39.8586 0.425084 39.5759C0.142346 39.2932 0.000976562 38.9583 0.000976562 38.5714V10C0.000976562 9.6131 0.142346 9.27827 0.425084 8.99554C0.707822 8.7128 1.04264 8.57143 1.42955 8.57143H8.5724V2.14286C8.5724 1.54762 8.78074 1.04167 9.19741 0.625C9.61407 0.208333 10.12 0 10.7153 0H20.7153C21.3105 0 21.8165 0.208333 22.2331 0.625C22.6498 1.04167 22.8581 1.54762 22.8581 2.14286V8.57143H30.001C30.3879 8.57143 30.7227 8.7128 31.0054 8.99554C31.2882 9.27827 31.4295 9.6131 31.4295 10Z"/>
</mask>
<path d="M8.5724 29.2857V30.7143C8.5724 30.9077 8.50172 31.0751 8.36035 31.2165C8.21898 31.3579 8.05157 31.4286 7.85812 31.4286H6.42955C6.2361 31.4286 6.06869 31.3579 5.92732 31.2165C5.78595 31.0751 5.71526 30.9077 5.71526 30.7143V29.2857C5.71526 29.0923 5.78595 28.9249 5.92732 28.7835C6.06869 28.6421 6.2361 28.5714 6.42955 28.5714H7.85812C8.05157 28.5714 8.21898 28.6421 8.36035 28.7835C8.50172 28.9249 8.5724 29.0923 8.5724 29.2857ZM8.5724 23.5714V25C8.5724 25.1935 8.50172 25.3609 8.36035 25.5022C8.21898 25.6436 8.05157 25.7143 7.85812 25.7143H6.42955C6.2361 25.7143 6.06869 25.6436 5.92732 25.5022C5.78595 25.3609 5.71526 25.1935 5.71526 25V23.5714C5.71526 23.378 5.78595 23.2106 5.92732 23.0692C6.06869 22.9278 6.2361 22.8571 6.42955 22.8571H7.85812C8.05157 22.8571 8.21898 22.9278 8.36035 23.0692C8.50172 23.2106 8.5724 23.378 8.5724 23.5714ZM14.2867 23.5714V25C14.2867 25.1935 14.216 25.3609 14.0746 25.5022C13.9333 25.6436 13.7659 25.7143 13.5724 25.7143H12.1438C11.9504 25.7143 11.783 25.6436 11.6416 25.5022C11.5002 25.3609 11.4295 25.1935 11.4295 25V23.5714C11.4295 23.378 11.5002 23.2106 11.6416 23.0692C11.783 22.9278 11.9504 22.8571 12.1438 22.8571H13.5724C13.7659 22.8571 13.9333 22.9278 14.0746 23.0692C14.216 23.2106 14.2867 23.378 14.2867 23.5714ZM8.5724 17.8571V19.2857C8.5724 19.4792 8.50172 19.6466 8.36035 19.7879C8.21898 19.9293 8.05157 20 7.85812 20H6.42955C6.2361 20 6.06869 19.9293 5.92732 19.7879C5.78595 19.6466 5.71526 19.4792 5.71526 19.2857V17.8571C5.71526 17.6637 5.78595 17.4963 5.92732 17.3549C6.06869 17.2135 6.2361 17.1429 6.42955 17.1429H7.85812C8.05157 17.1429 8.21898 17.2135 8.36035 17.3549C8.50172 17.4963 8.5724 17.6637 8.5724 17.8571ZM25.7153 29.2857V30.7143C25.7153 30.9077 25.6446 31.0751 25.5032 31.2165C25.3618 31.3579 25.1944 31.4286 25.001 31.4286H23.5724C23.379 31.4286 23.2115 31.3579 23.0702 31.2165C22.9288 31.0751 22.8581 30.9077 22.8581 30.7143V29.2857C22.8581 29.0923 22.9288 28.9249 23.0702 28.7835C23.2115 28.6421 23.379 28.5714 23.5724 28.5714H25.001C25.1944 28.5714 25.3618 28.6421 25.5032 28.7835C25.6446 28.9249 25.7153 29.0923 25.7153 29.2857ZM20.001 23.5714V25C20.001 25.1935 19.9303 25.3609 19.7889 25.5022C19.6476 25.6436 19.4801 25.7143 19.2867 25.7143H17.8581C17.6647 25.7143 17.4973 25.6436 17.3559 25.5022C17.2145 25.3609 17.1438 25.1935 17.1438 25V23.5714C17.1438 23.378 17.2145 23.2106 17.3559 23.0692C17.4973 22.9278 17.6647 22.8571 17.8581 22.8571H19.2867C19.4801 22.8571 19.6476 22.9278 19.7889 23.0692C19.9303 23.2106 20.001 23.378 20.001 23.5714ZM14.2867 17.8571V19.2857C14.2867 19.4792 14.216 19.6466 14.0746 19.7879C13.9333 19.9293 13.7659 20 13.5724 20H12.1438C11.9504 20 11.783 19.9293 11.6416 19.7879C11.5002 19.6466 11.4295 19.4792 11.4295 19.2857V17.8571C11.4295 17.6637 11.5002 17.4963 11.6416 17.3549C11.783 17.2135 11.9504 17.1429 12.1438 17.1429H13.5724C13.7659 17.1429 13.9333 17.2135 14.0746 17.3549C14.216 17.4963 14.2867 17.6637 14.2867 17.8571ZM25.7153 23.5714V25C25.7153 25.1935 25.6446 25.3609 25.5032 25.5022C25.3618 25.6436 25.1944 25.7143 25.001 25.7143H23.5724C23.379 25.7143 23.2115 25.6436 23.0702 25.5022C22.9288 25.3609 22.8581 25.1935 22.8581 25V23.5714C22.8581 23.378 22.9288 23.2106 23.0702 23.0692C23.2115 22.9278 23.379 22.8571 23.5724 22.8571H25.001C25.1944 22.8571 25.3618 22.9278 25.5032 23.0692C25.6446 23.2106 25.7153 23.378 25.7153 23.5714ZM20.001 17.8571V19.2857C20.001 19.4792 19.9303 19.6466 19.7889 19.7879C19.6476 19.9293 19.4801 20 19.2867 20H17.8581C17.6647 20 17.4973 19.9293 17.3559 19.7879C17.2145 19.6466 17.1438 19.4792 17.1438 19.2857V17.8571C17.1438 17.6637 17.2145 17.4963 17.3559 17.3549C17.4973 17.2135 17.6647 17.1429 17.8581 17.1429H19.2867C19.4801 17.1429 19.6476 17.2135 19.7889 17.3549C19.9303 17.4963 20.001 17.6637 20.001 17.8571ZM25.7153 17.8571V19.2857C25.7153 19.4792 25.6446 19.6466 25.5032 19.7879C25.3618 19.9293 25.1944 20 25.001 20H23.5724C23.379 20 23.2115 19.9293 23.0702 19.7879C22.9288 19.6466 22.8581 19.4792 22.8581 19.2857V17.8571C22.8581 17.6637 22.9288 17.4963 23.0702 17.3549C23.2115 17.2135 23.379 17.1429 23.5724 17.1429H25.001C25.1944 17.1429 25.3618 17.2135 25.5032 17.3549C25.6446 17.4963 25.7153 17.6637 25.7153 17.8571ZM20.001 37.1429H28.5724V11.4286H22.8581V12.1429C22.8581 12.7381 22.6498 13.244 22.2331 13.6607C21.8165 14.0774 21.3105 14.2857 20.7153 14.2857H10.7153C10.12 14.2857 9.61407 14.0774 9.19741 13.6607C8.78074 13.244 8.5724 12.7381 8.5724 12.1429V11.4286H2.85812V37.1429H11.4295V32.1429C11.4295 31.9494 11.5002 31.782 11.6416 31.6406C11.783 31.4993 11.9504 31.4286 12.1438 31.4286H19.2867C19.4801 31.4286 19.6476 31.4993 19.7889 31.6406C19.9303 31.782 20.001 31.9494 20.001 32.1429V37.1429ZM20.001 10.7143V3.57143C20.001 3.37798 19.9303 3.21057 19.7889 3.0692C19.6476 2.92783 19.4801 2.85714 19.2867 2.85714H17.8581C17.6647 2.85714 17.4973 2.92783 17.3559 3.0692C17.2145 3.21057 17.1438 3.37798 17.1438 3.57143V5.71429H14.2867V3.57143C14.2867 3.37798 14.216 3.21057 14.0746 3.0692C13.9333 2.92783 13.7659 2.85714 13.5724 2.85714H12.1438C11.9504 2.85714 11.783 2.92783 11.6416 3.0692C11.5002 3.21057 11.4295 3.37798 11.4295 3.57143V10.7143C11.4295 10.9077 11.5002 11.0751 11.6416 11.2165C11.783 11.3579 11.9504 11.4286 12.1438 11.4286H13.5724C13.7659 11.4286 13.9333 11.3579 14.0746 11.2165C14.216 11.0751 14.2867 10.9077 14.2867 10.7143V8.57143H17.1438V10.7143C17.1438 10.9077 17.2145 11.0751 17.3559 11.2165C17.4973 11.3579 17.6647 11.4286 17.8581 11.4286H19.2867C19.4801 11.4286 19.6476 11.3579 19.7889 11.2165C19.9303 11.0751 20.001 10.9077 20.001 10.7143ZM31.4295 10V38.5714C31.4295 38.9583 31.2882 39.2932 31.0054 39.5759C30.7227 39.8586 30.3879 40 30.001 40H1.42955C1.04264 40 0.707822 39.8586 0.425084 39.5759C0.142346 39.2932 0.000976562 38.9583 0.000976562 38.5714V10C0.000976562 9.6131 0.142346 9.27827 0.425084 8.99554C0.707822 8.7128 1.04264 8.57143 1.42955 8.57143H8.5724V2.14286C8.5724 1.54762 8.78074 1.04167 9.19741 0.625C9.61407 0.208333 10.12 0 10.7153 0H20.7153C21.3105 0 21.8165 0.208333 22.2331 0.625C22.6498 1.04167 22.8581 1.54762 22.8581 2.14286V8.57143H30.001C30.3879 8.57143 30.7227 8.7128 31.0054 8.99554C31.2882 9.27827 31.4295 9.6131 31.4295 10Z" fill="#237ABF" stroke="#237ABF" stroke-width="0.0446429" mask="url(#path-1-inside-1_117_1015)"/>
</svg>
