<svg width="104" height="112" viewBox="0 0 104 112" fill="none" xmlns="http://www.w3.org/2000/svg">
<path d="M51.9999 0C42.9538 0 37.539 1.37846 34.0972 3.09723C32.3741 3.95877 31.1507 4.86338 30.3279 5.78954C29.763 6.47775 29.3082 7.24937 28.9796 8.07692C28.8445 8.42288 28.7548 8.78486 28.7125 9.15385L26.4208 38.6357C26.3907 38.8166 26.451 39.1095 26.4208 39.3077L26.1538 42.2714C26.1287 42.5393 26.1287 42.809 26.1538 43.0769C26.1538 57.2923 37.7845 68.9231 51.9999 68.9231C66.2153 68.9231 77.8461 57.2923 77.8461 43.0769V42.4049C77.8468 42.3604 77.8468 42.3159 77.8461 42.2714L75.2873 9.15385C75.2451 8.78486 75.1553 8.42288 75.0202 8.07692C75.0202 8.07692 74.499 6.71569 73.6719 5.78954C72.8492 4.85908 71.6258 3.95446 69.9027 3.09723C66.4608 1.37415 61.0461 0 51.9999 0ZM51.9999 68.9231C23.5692 68.9231 0.307617 82.3028 0.307617 94.3643V112H103.692V94.3643C103.692 82.9059 82.6621 70.2843 56.1741 69.0566C54.7846 68.9649 53.3924 68.9204 51.9999 68.9231ZM51.9999 8.61539C60.1845 8.61539 64.2725 9.90769 65.9999 10.7692C66.5771 11.0578 66.6461 11.1698 66.8098 11.3077L68.5587 33.3846C64.5956 33.6258 59.1938 34.4615 51.9999 34.4615C44.8061 34.4615 39.4085 33.6258 35.4412 33.3846L37.1901 11.3077C37.3495 11.1698 37.4227 11.0578 37.9999 10.7692C39.7273 9.90769 43.8153 8.61539 51.9999 8.61539ZM48.4978 12.9231V18.0406H43.3845V25.0406H48.5021V30.1538H55.4978V25.0363H60.6153V18.0406H55.4978V12.9231H48.5021H48.4978ZM39.0768 78.6154L50.1175 103.385H8.923V94.3643C8.923 91.1551 19.9076 81.7557 39.0768 78.6154ZM64.923 78.6154C84.0922 81.76 95.0768 91.1551 95.0768 94.3643V103.385H53.8824L64.923 78.6154Z" fill="#E6007E"/>
</svg>
