<svg width="34" height="38" viewBox="0 0 34 38" fill="none" xmlns="http://www.w3.org/2000/svg">
<path fill-rule="evenodd" clip-rule="evenodd" d="M17 0C15.3613 0 12.6229 0.629375 10.046 1.33C7.40976 2.0425 4.75214 2.88562 3.18939 3.39625C2.536 3.61202 1.95674 4.00773 1.51814 4.53792C1.07954 5.0681 0.799395 5.71126 0.709888 6.3935C-0.705612 17.0264 2.57901 24.9066 6.56426 30.1198C8.25427 32.3498 10.2693 34.3136 12.5421 35.9456C13.4589 36.594 14.3091 37.0904 15.0311 37.43C15.6961 37.7435 16.411 38 17 38C17.589 38 18.3015 37.7435 18.9689 37.43C19.8393 37.0069 20.672 36.5103 21.4579 35.9456C23.7307 34.3137 25.7458 32.3498 27.4358 30.1198C31.421 24.9066 34.7056 17.0264 33.2901 6.3935C33.2008 5.71093 32.9207 5.0674 32.4821 4.5368C32.0435 4.00621 31.4642 3.61007 30.8106 3.39388C28.5421 2.65006 26.2559 1.96111 23.954 1.32763C21.3771 0.63175 18.6388 0 17 0ZM17 11.875C17.8413 11.8737 18.6559 12.1703 19.2996 12.7121C19.9432 13.2539 20.3743 14.006 20.5165 14.8352C20.6588 15.6644 20.503 16.5172 20.0767 17.2426C19.6504 17.9679 18.9812 18.5189 18.1875 18.7981L19.1019 23.5244C19.1352 23.6963 19.13 23.8734 19.0868 24.0431C19.0436 24.2128 18.9634 24.3708 18.8519 24.5058C18.7405 24.6409 18.6006 24.7496 18.4422 24.8242C18.2838 24.8989 18.1109 24.9375 17.9358 24.9375H16.0643C15.8894 24.9372 15.7167 24.8982 15.5586 24.8235C15.4005 24.7487 15.2609 24.6399 15.1497 24.5049C15.0385 24.3699 14.9585 24.212 14.9155 24.0425C14.8724 23.873 14.8673 23.6961 14.9005 23.5244L15.8125 18.7981C15.0189 18.5189 14.3496 17.9679 13.9234 17.2426C13.4971 16.5172 13.3413 15.6644 13.4835 14.8352C13.6257 14.006 14.0568 13.2539 14.7005 12.7121C15.3441 12.1703 16.1587 11.8737 17 11.875Z" fill="#237ABF"/>
</svg>
