<svg width="33" height="27" viewBox="0 0 33 27" fill="none" xmlns="http://www.w3.org/2000/svg">
<path d="M4.92899 0.142578H24.2147C25.4006 0.1425 26.5416 0.596227 27.4036 1.41068C28.2656 2.22513 28.7833 3.33857 28.8504 4.52258L28.8576 4.78544V18.3569C28.8576 19.5428 28.4039 20.6838 27.5895 21.5458C26.775 22.4078 25.6616 22.9254 24.4776 22.9926L24.2147 22.9997H4.92899C3.74308 22.9998 2.60209 22.5461 1.74009 21.7316C0.878086 20.9172 0.360417 19.8037 0.293276 18.6197L0.286133 18.3569V4.78544C0.286055 3.59952 0.739782 2.45854 1.55424 1.59653C2.36869 0.734531 3.48212 0.216862 4.66613 0.149721L4.92899 0.142578ZM26.7147 7.81829L15.0718 13.9469C14.9404 14.0163 14.7959 14.0576 14.6476 14.0682C14.4993 14.0788 14.3504 14.0584 14.2104 14.0083L14.0733 13.9483L2.42899 7.81972V18.3569C2.42901 18.9843 2.66495 19.5887 3.08996 20.0503C3.51497 20.5118 4.09799 20.7967 4.72328 20.8483L4.92899 20.8569H24.2147C24.8423 20.8568 25.447 20.6207 25.9086 20.1954C26.3701 19.7701 26.6548 19.1867 26.7061 18.5611L26.7147 18.3569V7.81829ZM24.2147 2.28544H4.92899C4.30158 2.28546 3.69711 2.52139 3.23557 2.94641C2.77404 3.37142 2.48919 3.95443 2.43756 4.57972L2.42899 4.78544V5.39829L14.5718 11.7883L26.7147 5.39686V4.78544C26.7147 4.15779 26.4785 3.55313 26.0532 3.09157C25.6279 2.63 25.0445 2.34529 24.419 2.29401L24.2147 2.28544ZM4.58899 24.4283C5.00852 25.0856 5.58698 25.6265 6.27089 26.001C6.9548 26.3755 7.7221 26.5716 8.50185 26.5711H24.9304C29.0733 26.5711 32.4304 23.214 32.4304 19.0711V8.35686C32.4308 7.57695 32.2346 6.80951 31.8601 6.1254C31.4856 5.44128 30.9448 4.86253 30.2876 4.44258V19.0711C30.2876 19.7748 30.149 20.4715 29.8796 21.1216C29.6103 21.7716 29.2156 22.3623 28.718 22.8597C28.2204 23.3572 27.6296 23.7518 26.9795 24.0209C26.3294 24.2901 25.6326 24.4285 24.929 24.4283H4.58613H4.58899Z" fill="#E6007E"/>
</svg>
