<svg width="34" height="34" viewBox="0 0 34 34" fill="none" xmlns="http://www.w3.org/2000/svg">
<path d="M16.4135 7.46007C19.0092 7.46007 21.455 8.61076 23.2475 10.4096V10.4149C23.2475 9.55107 23.8287 8.89764 24.6319 8.89764H24.8359C26.1035 8.89764 26.3574 10.0929 26.3574 10.4701L26.3627 23.8948C26.2745 24.7746 27.2712 25.2293 27.8247 24.6641C29.9763 22.4509 32.555 13.2751 26.4849 7.96264C20.8239 3.00395 13.226 3.82314 9.18636 6.60689C4.8928 9.57339 2.14836 16.1258 4.81418 22.2841C7.72543 28.998 16.048 31.0008 21.0014 29.0033C23.5089 27.9908 24.6649 31.3759 22.0585 32.4841C18.1305 34.1596 7.18355 33.9886 2.0708 25.1348C-1.38339 19.1539 -1.20064 8.63307 7.96449 3.18245C14.9696 -0.989989 24.2122 0.166012 29.784 5.9832C35.6065 12.0703 35.2697 23.4592 29.5853 27.8866C27.0109 29.9001 23.188 27.9419 23.2156 25.0083L23.1869 24.0521C21.3945 25.8275 19.0092 26.8688 16.4135 26.8688C11.2784 26.8688 6.75749 22.3468 6.75749 17.217C6.75749 12.032 11.2784 7.4622 16.4135 7.4622V7.46007ZM22.8724 16.8462C22.678 13.0881 19.8889 10.825 16.5187 10.825H16.3912C12.5067 10.825 10.3487 13.885 10.3487 17.3541C10.3487 21.2439 12.9551 23.7004 16.3752 23.7004C20.1928 23.7004 22.6992 20.9071 22.882 17.6027L22.8724 16.8462Z" fill="#237ABF"/>
</svg>
