<svg width="40" height="40" viewBox="0 0 40 40" fill="none" xmlns="http://www.w3.org/2000/svg">
<path d="M22.2216 15.5547H17.7771C17.4824 15.5547 17.1998 15.6718 16.9915 15.8801C16.7831 16.0885 16.666 16.3711 16.666 16.6658V23.3325C16.666 23.6272 16.7831 23.9098 16.9915 24.1181C17.1998 24.3265 17.4824 24.4436 17.7771 24.4436H22.2216C22.5163 24.4436 22.7989 24.3265 23.0072 24.1181C23.2156 23.9098 23.3327 23.6272 23.3327 23.3325V16.6658C23.3327 16.3711 23.2156 16.0885 23.0072 15.8801C22.7989 15.6718 22.5163 15.5547 22.2216 15.5547ZM21.7771 22.888H18.2216V17.1102H21.7771V22.888Z" fill="#237ABF"/>
<path d="M37.456 13.7564L32.9116 9.21198C32.7046 9.00671 32.4253 8.89098 32.1338 8.88976H26.5782V6.72309C26.5933 6.13926 26.3779 5.57297 25.9787 5.14671C25.5795 4.72044 25.0285 4.46848 24.4449 4.44531H15.3782C15.0931 4.45653 14.813 4.52486 14.5547 4.64625C14.2964 4.76764 14.0651 4.93962 13.8745 5.15201C13.6839 5.3644 13.5378 5.61289 13.4449 5.88275C13.352 6.15261 13.3142 6.43836 13.3338 6.72309V8.88976H7.86712C7.72089 8.88891 7.57593 8.91694 7.44056 8.97223C7.30518 9.02753 7.18205 9.109 7.07823 9.21198L2.5449 13.7564C2.44192 13.8602 2.36045 13.9834 2.30515 14.1188C2.24986 14.2541 2.22183 14.3991 2.22267 14.5453V31.112C2.22267 31.7014 2.4568 32.2666 2.87355 32.6833C3.2903 33.1001 3.85553 33.3342 4.4449 33.3342H35.556C36.1454 33.3342 36.7106 33.1001 37.1274 32.6833C37.5441 32.2666 37.7782 31.7014 37.7782 31.112V14.5342C37.777 14.2427 37.6613 13.9634 37.456 13.7564V13.7564ZM15.556 6.66753H24.4449V8.88976H15.556V6.66753ZM35.556 18.8898H24.4449V21.0342H35.556V31.112H4.4449V21.0342H15.556V18.8898H4.4449V15.0009L8.33379 11.112H31.6671L35.556 15.0009V18.8898Z" fill="#237ABF"/>
</svg>
