<svg width="109" height="109" viewBox="0 0 109 109" fill="none" xmlns="http://www.w3.org/2000/svg">
<path fill-rule="evenodd" clip-rule="evenodd" d="M54.5 19.5625C54.5 29.9551 46.0801 38.375 35.6875 38.375C25.2949 38.375 16.875 29.9551 16.875 19.5625C16.875 9.16994 25.2949 0.75 35.6875 0.75C46.0801 0.75 54.5 9.16994 54.5 19.5625ZM0.75 58.2625C0.75 46.8245 24.0264 41.0625 35.6875 41.0625C42.933 41.0625 54.6612 43.2877 62.5087 47.7141C57.6612 50.2485 53.4758 53.8848 50.2888 58.3306C47.1018 62.7764 45.0021 67.9078 44.1585 73.3125H0.75V58.2625ZM70.625 51.8125C70.625 51.0997 70.9081 50.4161 71.4121 49.9121C71.9161 49.4081 72.5997 49.125 73.3125 49.125H84.0625C84.7753 49.125 85.4588 49.4081 85.9628 49.9121C86.4669 50.4161 86.75 51.0997 86.75 51.8125C86.75 52.5253 86.4669 53.2088 85.9628 53.7128C85.4588 54.2169 84.7753 54.5 84.0625 54.5H81.375V60.0631C84.488 60.5097 87.4383 61.7335 89.9535 63.6214L93.6999 59.875L92.9124 59.0876C92.4229 58.5807 92.152 57.9018 92.1581 57.1972C92.1642 56.4925 92.4469 55.8185 92.9452 55.3202C93.4434 54.8219 94.1175 54.5392 94.8222 54.5331C95.5268 54.527 96.2057 54.7979 96.7126 55.2874L102.088 60.6624C102.577 61.1693 102.848 61.8482 102.842 62.5528C102.836 63.2575 102.553 63.9315 102.055 64.4298C101.557 64.9281 100.882 65.2107 100.178 65.2169C99.4732 65.223 98.7943 64.9521 98.2874 64.4626L97.5 63.6751L93.7536 67.4215C95.6415 69.9367 96.8652 72.887 97.3119 76H102.875V73.3125C102.875 72.5997 103.158 71.9161 103.662 71.4121C104.166 70.9081 104.85 70.625 105.562 70.625C106.275 70.625 106.959 70.9081 107.463 71.4121C107.967 71.9161 108.25 72.5997 108.25 73.3125V84.0625C108.25 84.7753 107.967 85.4588 107.463 85.9628C106.959 86.4669 106.275 86.75 105.562 86.75C104.85 86.75 104.166 86.4669 103.662 85.9628C103.158 85.4588 102.875 84.7753 102.875 84.0625V81.375H97.3119C96.9586 83.8407 96.1161 86.2109 94.834 88.3464L100.187 93.6999L100.975 92.9124C101.482 92.4229 102.161 92.152 102.865 92.1581C103.57 92.1642 104.244 92.4469 104.742 92.9452C105.241 93.4434 105.523 94.1175 105.529 94.8222C105.535 95.5268 105.265 96.2057 104.775 96.7126L99.4001 102.088C98.8932 102.577 98.2143 102.848 97.5097 102.842C96.805 102.836 96.1309 102.553 95.6327 102.055C95.1344 101.557 94.8517 100.882 94.8456 100.178C94.8395 99.4732 95.1104 98.7943 95.5999 98.2874L96.3874 97.5L91.4209 92.5362C88.6322 95.1068 85.1294 96.7711 81.375 97.3092V102.875H84.0625C84.7753 102.875 85.4588 103.158 85.9628 103.662C86.4669 104.166 86.75 104.85 86.75 105.562C86.75 106.275 86.4669 106.959 85.9628 107.463C85.4588 107.967 84.7753 108.25 84.0625 108.25H73.3125C72.5997 108.25 71.9161 107.967 71.4121 107.463C70.9081 106.959 70.625 106.275 70.625 105.562C70.625 104.85 70.9081 104.166 71.4121 103.662C71.9161 103.158 72.5997 102.875 73.3125 102.875H76V97.3119C72.887 96.8652 69.9367 95.6415 67.4215 93.7536L63.6751 97.5L64.4626 98.2874C64.9521 98.7943 65.223 99.4732 65.2169 100.178C65.2107 100.882 64.9281 101.557 64.4298 102.055C63.9315 102.553 63.2575 102.836 62.5528 102.842C61.8482 102.848 61.1693 102.577 60.6624 102.088L55.2874 96.7126C54.7979 96.2057 54.527 95.5268 54.5331 94.8222C54.5392 94.1175 54.8219 93.4434 55.3202 92.9452C55.8185 92.4469 56.4925 92.1642 57.1972 92.1581C57.9018 92.152 58.5807 92.4229 59.0876 92.9124L59.875 93.6999L63.6214 89.9535C61.7335 87.4383 60.5097 84.488 60.0631 81.375H54.5V84.0625C54.5 84.7753 54.2169 85.4588 53.7128 85.9628C53.2088 86.4669 52.5253 86.75 51.8125 86.75C51.0997 86.75 50.4161 86.4669 49.9121 85.9628C49.4081 85.4588 49.125 84.7753 49.125 84.0625V73.3125C49.125 72.5997 49.4081 71.9161 49.9121 71.4121C50.4161 70.9081 51.0997 70.625 51.8125 70.625C52.5253 70.625 53.2088 70.9081 53.7128 71.4121C54.2169 71.9161 54.5 72.5997 54.5 73.3125V76H60.0631C60.5097 72.887 61.7335 69.9367 63.6214 67.4215L59.875 63.6751L59.0876 64.4626C58.5807 64.9521 57.9018 65.223 57.1972 65.2169C56.4925 65.2107 55.8185 64.9281 55.3202 64.4298C54.8219 63.9315 54.5392 63.2575 54.5331 62.5528C54.527 61.8482 54.7979 61.1693 55.2874 60.6624L60.6624 55.2874C61.1693 54.7979 61.8482 54.527 62.5528 54.5331C63.2575 54.5392 63.9315 54.8219 64.4298 55.3202C64.9281 55.8185 65.2107 56.4925 65.2169 57.1972C65.223 57.9018 64.9521 58.5807 64.4626 59.0876L63.6751 59.875L67.4215 63.6214C69.9367 61.7335 72.887 60.5097 76 60.0631V54.5H73.3125C72.5997 54.5 71.9161 54.2169 71.4121 53.7128C70.9081 53.2088 70.625 52.5253 70.625 51.8125Z" fill="#169539"/>
</svg>
