<svg width="34" height="30" viewBox="0 0 34 30" fill="none" xmlns="http://www.w3.org/2000/svg">
<path d="M0.680078 0.0810547C0.454644 0.0810547 0.238443 0.170608 0.0790374 0.330014C-0.0803686 0.48942 -0.169922 0.705621 -0.169922 0.931055V25.0711C-0.169922 25.2965 -0.0803686 25.5127 0.0790374 25.6721C0.238443 25.8315 0.454644 25.9211 0.680078 25.9211H23.4193C23.1221 25.5301 22.8256 25.1387 22.5271 24.7481C22.1558 24.2003 21.6166 23.7315 21.4585 23.0657C19.2723 23.9681 16.7604 24.0517 14.5171 23.3027C14.4678 23.2867 14.4195 23.267 14.3705 23.2504C14.1131 23.502 13.8357 23.9406 13.7918 24.2211H10.5595C10.8022 23.3986 10.2868 22.1144 10.7743 21.2773C10.8131 21.2671 10.86 21.2015 10.8814 21.1339C10.8264 21.0822 10.7706 21.0319 10.7169 20.9792C10.2388 21.1247 10.0478 21.4847 9.78188 21.8006C9.92706 22.4888 8.87918 22.3259 8.98492 23.028C9.7149 23.5941 8.31104 23.1626 7.89352 23.2079C7.4505 23.2126 6.15442 22.7489 6.60424 23.6975C6.53386 23.9579 6.5988 24.1177 6.72834 24.2211H6.52978C6.49884 23.9232 5.93784 23.879 5.7216 23.7328C5.35746 23.6444 4.9226 23.6002 4.54554 23.4323C4.44864 23.7015 3.57416 24.0096 3.38274 24.2211H1.53008V11.8005C1.79086 11.9753 2.37566 11.9059 1.5787 11.5285H1.53008V7.61376C1.68478 7.53555 1.79528 7.51074 1.78848 7.64164C2.17166 7.51244 2.3386 6.57982 3.0016 6.96164C3.41504 7.0225 4.09912 7.66339 3.75538 7.74364C4.0233 8.39779 4.21336 7.97654 4.54214 8.75616C4.31706 9.8224 5.17896 10.6126 5.6519 11.2922C6.21834 11.5275 6.4424 12.2599 7.36312 12.2884C7.48824 12.3979 7.64872 12.4972 7.816 12.5924C7.8619 12.2408 7.92684 11.892 8.00878 11.5472C7.98668 11.5421 7.96526 11.5391 7.94146 11.5312C7.05576 12.3483 6.8742 10.9339 7.73916 10.8784C7.79696 10.8747 7.85918 10.8778 7.92616 10.8869C8.02646 10.875 8.10976 10.8869 8.18014 10.9118C8.46417 9.98056 8.88504 9.09677 9.42896 8.28934C9.72105 7.85348 10.0489 7.4427 10.4092 7.06125C10.2303 6.76205 10.0474 6.59511 9.83152 6.98577C9.8152 6.40608 8.2478 5.7985 9.40108 6.35474C10.0059 6.87596 10.2042 6.2643 10.2997 5.84678C10.8182 5.30618 9.76828 5.12155 9.9597 4.76829C9.64146 4.29128 9.17022 3.8027 8.68606 3.50723C7.74698 3.61603 7.41786 3.41782 8.67348 3.41714C8.7867 2.83064 8.97472 2.41515 9.10426 1.92147C8.96826 1.88237 8.82614 1.8885 8.68606 1.88816C8.08528 1.80757 7.72862 2.0398 7.74086 2.49846C7.28968 2.46242 7.69496 1.69334 6.99932 1.92828C5.94464 1.91162 7.21964 2.26794 7.12172 2.31927C7.00102 2.58992 6.24112 2.42128 6.33054 2.69566C5.98238 2.05169 5.82394 3.00268 5.55296 2.35123C5.38976 2.19483 6.23636 2.5056 6.04358 1.93542C5.61722 1.77222 5.46456 2.05781 5.13238 2.17443C4.14094 2.72319 5.30544 3.23931 5.80898 3.42224C6.56786 3.21993 6.56718 2.96425 7.09486 3.24543C7.68646 3.57353 6.49748 3.34302 6.53386 3.84792C6.46586 3.5341 6.38086 3.34471 6.01366 3.74693C5.52406 3.83534 5.30544 3.16247 4.93994 3.20973C4.10694 3.09651 4.41804 4.96992 5.10416 4.33208C5.5193 5.0505 4.57376 4.52043 4.29326 4.44019C3.65984 5.14774 2.97746 4.42183 2.2213 4.39259C1.97922 4.23143 1.7419 4.22939 1.53008 4.31134V1.78105H10.4459C9.8101 1.79839 9.2423 1.88237 9.4735 2.33967C9.4361 3.22163 10.5771 2.52124 10.7414 3.31888C11.2153 3.87614 10.4595 5.06104 11.2792 4.85296C10.9777 5.21982 11.0154 5.80428 11.2507 6.26498C12.121 5.53447 13.1081 4.95564 14.1706 4.55274C14.1893 4.44802 14.1747 4.32766 14.1121 4.18554C14.0057 3.65208 14.5007 3.48173 14.3273 2.89013C14.5606 2.44473 14.3797 1.97349 13.9799 1.78105H32.4701V4.18757C32.4173 4.16497 32.3632 4.14589 32.3079 4.13046C31.8288 4.56464 32.2161 4.60577 32.4701 4.50819V4.88763C31.9036 4.56905 31.2814 4.53403 30.6773 4.66664C30.4029 4.18961 29.4315 4.20084 29.1119 3.77141C28.5489 3.09685 29.2836 3.29814 29.7749 3.24611C29.6355 2.82451 28.7991 2.6246 28.4458 2.6943C27.8077 3.04382 28.7811 3.3573 28.6828 3.8265C28.6828 4.16752 28.267 4.1699 27.9042 4.1512C28.0508 3.79012 27.2096 3.34607 26.8761 3.63983C26.2447 3.44875 26.004 3.56096 26.4205 2.9034C26.2749 2.39782 25.6735 2.38829 25.4039 2.03741C25.0594 2.76773 24.4852 2.5464 23.8698 2.99112C23.6233 3.35152 23.1099 3.67519 23.0844 3.9132C22.7029 4.09238 22.3211 3.17811 22.0535 3.98799C21.8107 4.67343 22.0671 5.00562 21.248 4.44461C20.4004 3.54123 22.9508 2.7674 22.0028 2.38286C21.2161 2.61235 20.7431 3.16689 20.5867 3.95467C20.5021 4.13385 20.5405 4.25864 20.6299 4.35961C23.6165 5.25041 26.0879 7.65217 27.0926 10.5986C27.1083 10.4211 27.1379 10.2505 27.1974 10.1257C27.4486 9.93392 27.2494 10.8618 27.7686 10.3341C27.3861 11.1552 28.7301 10.4429 28.912 10.1039C28.6454 9.4348 29.8708 9.11962 29.8422 8.99348C29.391 8.5202 29.6474 8.9911 29.1496 9.09956C28.9847 8.87992 29.4658 7.67563 28.8256 7.78614C27.8695 7.53998 29.6389 6.83584 30.1166 7.09492C30.3342 6.2898 30.647 6.93104 30.1095 7.3013C29.9048 8.01564 30.0027 8.99008 30.6048 8.03536C30.8755 7.77186 30.8082 7.08506 31.1604 6.96538C31.6337 6.74234 32.4782 6.56792 32.4561 5.8784C32.4609 5.87704 32.4653 5.87738 32.4701 5.87636V24.2211H31.124C31.4157 23.8171 31.8016 23.1263 31.393 22.8757C30.7772 22.7693 30.3172 22.0267 29.5729 22.0576C29.237 21.6707 28.4635 21.4749 28.2554 21.3994C28.0474 21.3239 27.6863 21.7601 27.3164 21.5674C27.205 21.5494 27.0914 21.5514 26.9808 21.5735C28.0939 23.0185 29.1966 24.4713 30.3033 25.9211H33.3201C33.5455 25.9211 33.7617 25.8315 33.9211 25.6721C34.0805 25.5127 34.1701 25.2965 34.1701 25.0711V0.931055C34.1701 0.705621 34.0805 0.48942 33.9211 0.330014C33.7617 0.170608 33.5455 0.0810547 33.3201 0.0810547H0.680078ZM17.2347 1.88985C16.6873 2.15947 17.658 3.23286 17.6848 2.2081C17.7851 2.3577 18.458 2.50866 18.238 2.0262C17.7491 1.73822 17.8232 2.06937 17.2343 1.89019L17.2347 1.88985ZM25.0822 1.89053C24.4916 2.17817 25.599 2.18361 25.0822 1.89053V1.89053ZM6.32102 1.98811C5.87902 2.31655 6.96974 2.64159 6.37882 2.00545L6.32102 1.98811ZM9.94032 2.18293C10.0508 2.28901 9.83118 2.25127 9.94032 2.18293V2.18293ZM5.67128 2.60317C5.7233 2.66335 5.64408 2.60759 5.67128 2.60317V2.60317ZM7.1853 2.74325C7.71808 2.83573 7.1445 2.96086 7.1853 2.74325V2.74325ZM7.9316 2.80446C8.4382 2.77216 8.11758 2.93025 7.9316 2.80446V2.80446ZM6.4441 2.82689C6.77356 2.86089 6.40194 2.97956 6.4441 2.82689V2.82689ZM7.49878 3.30561C7.83198 3.38245 7.3349 3.40931 7.49878 3.30561V3.30561ZM7.73372 3.83567C7.53312 4.47555 8.4467 5.34188 7.7378 4.61258C7.54298 4.32085 7.44166 4.04137 7.73372 3.83567ZM6.5444 3.90027C6.83646 4.38818 7.28118 4.51839 6.90888 4.68636C6.6617 4.56668 6.60458 4.1937 6.5444 3.89994V3.90027ZM11.1273 4.39226C11.1684 4.4198 11.0164 4.39906 11.1273 4.39226V4.39226ZM4.23342 4.54628C4.19534 4.70063 4.18072 4.54866 4.23342 4.54628V4.54628ZM6.86638 4.79584C6.84258 5.11748 6.711 4.79006 6.86638 4.79584V4.79584ZM8.8207 4.79787C8.69354 5.42688 9.1981 5.38676 9.1641 5.45C8.74726 5.6336 8.84688 6.38976 8.52796 5.81278C8.32668 5.71894 8.63132 4.88866 8.76834 4.8159L8.8207 4.79787ZM6.77152 4.79856C6.81606 4.80875 6.76846 4.94578 6.77152 4.79856V4.79856ZM31.3658 4.855C31.3794 4.87812 31.3066 4.9128 31.3658 4.855V4.855ZM6.796 4.93728C7.02788 5.18004 6.48524 5.15828 6.796 4.93728V4.93728ZM17.6005 5.2715C15.7465 5.28438 13.9468 5.89937 12.4726 7.02385C8.70204 9.89515 7.96832 15.308 10.8396 19.0786C13.5273 22.6081 18.4352 23.4595 22.1446 21.1995L22.8532 22.1301C22.7138 22.4544 22.7267 22.7645 22.8889 22.978L28.0297 29.7287C28.3357 30.1303 29.0745 30.0823 29.6797 29.6213C30.2849 29.1606 30.5273 28.4612 30.2217 28.0593L25.0809 21.3086C24.9183 21.0951 24.6229 20.9999 24.273 21.0482L23.5645 20.1179C26.7295 17.1429 27.2147 12.1857 24.5273 8.6562C23.0915 6.7709 21.0202 5.6455 18.8368 5.3497C18.4271 5.29423 18.0139 5.2681 17.6005 5.2715ZM7.94826 6.12422C8.16076 6.62878 8.98152 6.33264 8.66022 7.02046C9.0179 7.35706 8.60344 8.54366 8.46438 7.5325C7.57426 7.52808 7.14926 6.64 7.89658 6.17386L7.94826 6.12422ZM8.7238 6.20786C8.9958 6.43906 8.2954 6.33672 8.7238 6.20786V6.20786ZM30.0853 6.82938C30.1091 6.81238 30.1683 6.93444 30.0853 6.82938V6.82938ZM17.9429 7.17652C18.9296 7.21413 19.8956 7.47031 20.7713 7.92657C21.6469 8.38283 22.4104 9.0278 23.0065 9.81492C23.5406 10.5132 23.9315 11.3101 24.1568 12.1598C24.3821 13.0095 24.4374 13.8954 24.3194 14.7666C24.2015 15.6377 23.9126 16.477 23.4694 17.2362C23.0263 17.9955 22.4375 18.6597 21.737 19.1908C21.0387 19.7249 20.2418 20.1159 19.392 20.3412C18.5422 20.5665 17.6563 20.6218 16.7851 20.5038C15.9139 20.3859 15.0746 20.097 14.3154 19.6538C13.5561 19.2106 12.8919 18.6218 12.3608 17.9212C11.8267 17.2229 11.4358 16.426 11.2105 15.5763C10.9853 14.7265 10.93 13.8406 11.048 12.9695C11.166 12.0983 11.4549 11.259 11.8981 10.4998C12.3413 9.74062 12.9301 9.07642 13.6307 8.54536C14.8647 7.60051 16.3899 7.11634 17.9429 7.17652ZM31.0628 7.52671C30.529 7.96837 31.7037 7.88745 31.0628 7.52671V7.52671ZM31.6986 7.8946C31.1077 8.18326 32.2151 8.18359 31.6986 7.8946V7.8946ZM32.0835 8.02923C31.5565 8.46784 32.6207 8.23732 32.0835 8.02923V8.02923ZM32.0624 8.12444C32.0917 8.1241 32.0444 8.15538 32.0624 8.12444V8.12444ZM32.1127 8.17918C32.1287 8.20502 32.0702 8.18462 32.1127 8.17918V8.17918ZM17.7175 8.53346C16.9742 8.5202 16.2405 8.68646 15.5639 8.98498C15.5993 9.02816 15.6499 9.06964 15.7241 9.10704C15.0441 8.88604 14.8462 9.74522 15.1325 10.1318L15.5925 10.1695L15.977 10.0002C16.2256 9.74182 16.2874 9.78636 16.3677 9.39502L16.5176 9.4144L16.6366 9.36476L16.9076 9.49872C17.2326 9.62588 17.2479 9.89992 17.1391 9.98016C16.9851 10.075 17.1667 10.089 17.1816 10.1478C17.2585 10.1257 17.3034 10.0594 17.3516 10.024L17.4387 9.99274C17.7562 9.78432 17.5346 9.71564 17.3139 9.43445L17.4309 9.46438C17.6019 9.65818 17.7025 9.87748 17.8038 10.1104C17.8154 10.1196 17.8259 10.1315 17.8392 10.1355C17.916 10.161 18.0245 10.1525 18.1173 10.127C18.2091 10.1019 18.2152 9.92678 18.1996 9.75916C18.3305 10.3562 19.6143 10.1787 18.8504 10.5429C18.4101 10.5527 17.7103 10.3113 17.5815 10.6163C17.2966 10.4871 17.151 10.4024 17.0932 10.3361C16.9178 10.2702 16.4129 10.0791 16.3949 10.0791C16.3735 10.0791 15.7309 10.1961 15.7309 10.1961L15.2005 10.3973C15.0281 10.9529 14.7561 10.6557 14.6636 11.0865C14.5912 11.3619 13.968 11.9569 14.2944 12.4254C14.5857 13.7807 16.2752 12.8783 16.6689 13.5291C16.484 13.9299 17.3989 14.6926 16.8869 15.3491C17.1283 16.3028 17.777 17.8971 18.8208 16.5398C19.0962 15.7272 19.6891 15.2879 19.6681 14.4818C19.3529 13.6879 21.2083 13.0993 20.466 12.4564C20.2882 12.4775 20.2678 12.5159 20.1267 12.5628C19.8302 12.5516 19.7537 12.3126 19.6528 12.1623C19.5757 12.0526 19.5074 11.937 19.4488 11.8165C19.6375 12.1089 19.8323 12.3571 20.1056 12.5098C20.5786 12.4037 21.1209 12.0538 21.3415 11.7971C21.3361 10.7965 22.6811 11.8345 22.6539 12.5866C22.7372 12.7892 22.843 12.93 22.9491 13.0123C22.8737 12.5313 22.7301 12.0635 22.5227 11.623C22.1456 10.7955 21.5418 10.0849 20.8081 9.55312C20.7945 9.5742 20.7605 9.57556 20.7673 9.52456C20.6681 9.45429 20.5666 9.38727 20.463 9.32362C20.4742 9.37088 20.4878 9.41881 20.5034 9.46743C20.4589 9.40114 20.412 9.33382 20.3732 9.26888C19.5722 8.79696 18.6535 8.52632 17.7178 8.53312L17.7175 8.53346ZM28.7801 8.57834C29.0266 9.28078 27.9226 10.9087 27.7621 9.84008C27.8753 9.31172 28.7814 9.39162 28.7801 8.57868V8.57834ZM8.08256 8.76363C8.1322 8.75786 8.07474 8.78913 8.08256 8.76363V8.76363ZM8.6065 9.01082C8.70544 9.0931 8.48682 9.0727 8.6065 9.01082V9.01082ZM18.816 9.03326C19.0904 9.26446 19.9322 9.57046 19.0411 9.32634C18.5773 9.53816 18.4339 9.4025 18.816 9.03326ZM16.6951 9.44466C16.6353 9.46302 16.6859 9.58712 16.6485 9.62622C16.9035 9.751 16.7607 9.50824 16.7985 9.46846C16.7468 9.44398 16.7148 9.4382 16.6951 9.44466ZM20.5823 9.69796C20.6612 9.90298 20.7136 10.0339 20.5109 9.77956C20.5277 9.77141 20.5426 9.76 20.5549 9.74598C20.5671 9.73197 20.5765 9.71564 20.5823 9.69796ZM16.7189 9.72346C16.6189 9.71258 16.5659 9.77956 16.5656 9.87306C16.8291 10.0162 16.8019 9.7799 16.8342 9.76188C16.7983 9.74209 16.7591 9.72906 16.7186 9.72346H16.7189ZM20.7901 11.1797C20.9403 11.1858 20.6462 11.3973 20.6966 11.1916C20.7384 11.1824 20.7686 11.1787 20.7901 11.1797ZM31.1468 12.5098C30.6572 13.03 31.7302 13.1214 31.1468 12.5098V12.5098ZM31.1128 12.5907C31.1631 12.5852 31.1036 12.6254 31.1128 12.5907V12.5907ZM31.155 12.6651C31.1597 12.7002 31.104 12.6566 31.155 12.6651V12.6651ZM31.5109 12.7331C31.0366 13.1459 32.0835 12.9956 31.5109 12.7331V12.7331ZM31.5619 12.8504C31.598 12.8443 31.5551 12.9004 31.5619 12.8504V12.8504ZM31.495 12.8685C31.5262 12.9106 31.4674 12.8923 31.495 12.8685V12.8685ZM27.62 13.4029C27.6285 13.6151 27.6302 13.8269 27.6254 14.0387C28.0154 14.101 28.504 14.0833 28.5132 14.5147C29.2122 14.545 28.4411 15.566 28.4156 14.6208C28.1308 14.5798 27.8403 14.629 27.585 14.7616C27.514 15.5035 27.3622 16.2355 27.1321 16.9444C27.7033 16.7632 28.286 16.7808 28.6301 17.3361C29.5362 17.3327 28.7654 17.9504 29.4077 18.0766C29.6814 17.5176 29.2635 17.588 29.7769 17.1324C30.275 16.4956 29.949 15.6731 29.4522 15.3253C29.3489 14.9316 28.9371 14.7187 29.1309 14.4501C29.5083 14.9618 30.0432 14.5787 29.5967 14.3019C29.9262 13.9942 31.1033 15.0948 30.4423 14.2482C30.1159 14.1877 29.6675 13.5128 29.5658 13.9473C29.5366 14.3077 28.6373 13.4002 28.3054 13.7715C28.2095 13.4369 27.7403 13.6389 27.7138 13.7882C27.858 13.5638 27.7672 13.4478 27.62 13.4029ZM29.3499 13.6936C28.8627 13.9704 29.7899 13.9609 29.3499 13.6936V13.6936ZM16.622 13.7174C16.6611 13.8058 16.6108 13.7321 16.622 13.7174V13.7174ZM12.354 13.7589C12.3439 14.231 12.3964 14.7024 12.51 15.1607C12.901 14.5685 12.8857 14.0122 12.354 13.7589ZM29.3247 13.7752C29.354 13.7963 29.2887 13.7834 29.3247 13.7752V13.7752ZM29.6542 13.816C29.813 13.9282 29.4951 13.9282 29.6542 13.816V13.816ZM29.6542 13.8194C29.5094 13.9235 29.7987 13.9235 29.6542 13.8194V13.8194ZM29.3574 13.849C29.3628 13.8834 29.3071 13.8429 29.3574 13.849V13.849ZM27.6227 14.2183C27.6193 14.2999 27.6122 14.3815 27.6067 14.4631C27.7165 14.3393 27.7641 14.2115 27.6227 14.2183ZM19.8731 14.5708C19.48 14.7867 20.2937 14.8853 19.9537 14.632L19.939 14.5957L19.8731 14.5708ZM20.3328 14.6314C19.9445 14.8741 19.342 16.0315 20.1774 16.0679C20.3787 15.8285 20.889 14.7612 20.3328 14.6314ZM30.8646 15.3685C30.5535 15.9822 31.768 15.7367 30.8646 15.3685V15.3685ZM20.955 15.4501C20.4497 15.7891 21.4449 15.7462 20.955 15.4501V15.4501ZM31.6755 16.8495C31.9631 17.5006 31.0091 17.8906 31.0812 18.4951C31.5708 18.7311 31.8234 17.843 32.1682 17.5713C32.5758 17.215 31.8472 17.1096 31.6755 16.8495ZM9.06278 18.8521C9.11854 19.2105 9.2865 19.5573 9.58638 19.663C9.39887 19.4013 9.22414 19.1307 9.06278 18.8521Z" fill="#237ABF"/>
</svg>
