<svg width="85" height="96" viewBox="0 0 85 96" fill="none" xmlns="http://www.w3.org/2000/svg">
<path d="M26.3337 44.333C21.4714 44.333 16.8082 42.4015 13.37 38.9633C9.93187 35.5251 8.00033 30.862 8.00033 25.9997V11.333C8.00033 10.3605 8.38663 9.42792 9.07427 8.74028C9.7619 8.05265 10.6945 7.66634 11.667 7.66634H15.3337C16.3061 7.66634 17.2387 7.28003 17.9264 6.5924C18.614 5.90477 19.0003 4.97214 19.0003 3.99967C19.0003 3.02721 18.614 2.09458 17.9264 1.40695C17.2387 0.719316 16.3061 0.333008 15.3337 0.333008H11.667C8.74961 0.333008 5.95172 1.49193 3.88882 3.55483C1.82592 5.61773 0.666992 8.41563 0.666992 11.333V25.9997C0.671705 30.142 1.68182 34.2214 3.61059 37.8873C5.53936 41.5532 8.32913 44.6962 11.7403 47.0463C15.0177 49.9358 17.6756 53.4593 19.5536 57.4044C21.4316 61.3494 22.4907 65.634 22.667 69.9997C22.667 76.8069 25.3712 83.3353 30.1846 88.1488C34.998 92.9622 41.5264 95.6663 48.3337 95.6663C55.1409 95.6663 61.6693 92.9622 66.4827 88.1488C71.2962 83.3353 74.0003 76.8069 74.0003 69.9997V65.8197C77.4567 64.9272 80.469 62.8048 82.4725 59.8503C84.476 56.8958 85.3332 53.312 84.8834 49.7707C84.4336 46.2294 82.7077 42.9737 80.0292 40.6138C77.3506 38.254 73.9034 36.9521 70.3337 36.9521C66.7639 36.9521 63.3167 38.254 60.6381 40.6138C57.9596 42.9737 56.2337 46.2294 55.7839 49.7707C55.3341 53.312 56.1913 56.8958 58.1948 59.8503C60.1983 62.8048 63.2106 64.9272 66.667 65.8197V69.9997C66.667 74.862 64.7355 79.5251 61.2973 82.9633C57.8591 86.4015 53.196 88.333 48.3337 88.333C43.4714 88.333 38.8082 86.4015 35.37 82.9633C31.9319 79.5251 30.0003 74.862 30.0003 69.9997C30.1859 65.6286 31.2565 61.3407 33.1472 57.3953C35.038 53.45 37.7096 49.9293 41.0003 47.0463C44.398 44.6881 47.1735 41.5415 49.0892 37.8761C51.0049 34.2106 52.0038 30.1355 52.0003 25.9997V11.333C52.0003 8.41563 50.8414 5.61773 48.7785 3.55483C46.7156 1.49193 43.9177 0.333008 41.0003 0.333008H37.3337C36.3612 0.333008 35.4286 0.719316 34.7409 1.40695C34.0533 2.09458 33.667 3.02721 33.667 3.99967C33.667 4.97214 34.0533 5.90477 34.7409 6.5924C35.4286 7.28003 36.3612 7.66634 37.3337 7.66634H41.0003C41.9728 7.66634 42.9054 8.05265 43.593 8.74028C44.2807 9.42792 44.667 10.3605 44.667 11.333V25.9997C44.667 28.4072 44.1928 30.7912 43.2715 33.0155C42.3501 35.2398 40.9997 37.2609 39.2973 38.9633C37.5949 40.6657 35.5738 42.0161 33.3495 42.9375C31.1252 43.8588 28.7412 44.333 26.3337 44.333ZM70.3337 58.9997C68.3887 58.9997 66.5235 58.2271 65.1482 56.8518C63.7729 55.4765 63.0003 53.6113 63.0003 51.6663C63.0003 49.7214 63.7729 47.8562 65.1482 46.4809C66.5235 45.1056 68.3887 44.333 70.3337 44.333C72.2786 44.333 74.1438 45.1056 75.5191 46.4809C76.8944 47.8562 77.667 49.7214 77.667 51.6663C77.667 53.6113 76.8944 55.4765 75.5191 56.8518C74.1438 58.2271 72.2786 58.9997 70.3337 58.9997Z" fill="black" fill-opacity="0.85"/>
</svg>
