<svg width="40" height="40" viewBox="0 0 40 40" fill="none" xmlns="http://www.w3.org/2000/svg">
<path d="M27.8535 22.1467C27.6988 21.9918 27.5151 21.8689 27.313 21.785C27.1108 21.7012 26.894 21.658 26.6751 21.658C26.4562 21.658 26.2395 21.7012 26.0373 21.785C25.8351 21.8689 25.6514 21.9918 25.4968 22.1467L22.8351 24.8067C21.4618 24.3983 19.2251 23.5217 17.8518 22.1467C16.3951 20.69 15.5618 18.3917 15.1951 17.16L17.8518 14.5033C18.0067 14.3487 18.1296 14.165 18.2135 13.9628C18.2973 13.7606 18.3405 13.5439 18.3405 13.325C18.3405 13.1061 18.2973 12.8894 18.2135 12.6872C18.1296 12.485 18.0067 12.3013 17.8518 12.1467L11.1851 5.48C10.8665 5.17925 10.4449 5.01172 10.0068 5.01172C9.56865 5.01172 9.14709 5.17925 8.82846 5.48L4.31346 9.99666C3.67679 10.63 3.31846 11.5033 3.33346 12.3917C3.37013 14.7633 3.99346 23.0033 10.4951 29.505C16.9918 36 25.2368 36.6283 27.6101 36.6667H27.6568C28.5368 36.6667 29.3685 36.32 29.9985 35.69L34.5185 31.17C34.6734 31.0153 34.7963 30.8317 34.8801 30.6295C34.964 30.4273 35.0071 30.2106 35.0071 29.9917C35.0071 29.7728 34.964 29.556 34.8801 29.3538C34.7963 29.1516 34.6734 28.968 34.5185 28.8133L27.8535 22.1467ZM27.6418 33.3333C25.5618 33.2983 18.4451 32.74 12.8518 27.1467C7.23846 21.5333 6.69846 14.3933 6.66679 12.3567L10.0068 9.015L14.3168 13.325L12.1618 15.48C11.7651 15.8767 11.5951 16.45 11.7101 17C11.7501 17.1917 12.7285 21.7367 15.4951 24.5033C18.2618 27.27 22.8068 28.2483 22.9985 28.2883C23.2694 28.3461 23.5505 28.3351 23.816 28.2562C24.0815 28.1773 24.3231 28.033 24.5185 27.8367L26.6735 25.6817L30.9835 29.9917L27.6418 33.3333Z" fill="#E6007E"/>
<path d="M26.3248 11.3185L21.6748 6.66681V18.3251H33.3331L28.6815 13.6751L36.1865 6.17014L33.8298 3.81348L26.3248 11.3185Z" fill="#E6007E"/>
</svg>
