<svg width="40" height="40" viewBox="0 0 40 40" fill="none" xmlns="http://www.w3.org/2000/svg">
<path d="M19.8487 0.0178261C16.3871 0.256159 13.1504 2.69616 13.1504 2.69616C13.1504 2.69616 20.2087 0.391159 22.1837 3.94949C23.6187 6.53616 21.9621 10.5978 19.4004 14.9495C17.0371 12.9295 10.7171 8.22449 4.8504 9.88616C-2.54627 11.9795 0.717064 21.9612 0.717064 21.9612C0.717064 21.9612 0.750397 14.3878 4.67206 13.5678C7.52206 12.9712 10.7937 15.8412 14.0554 19.6745C11.4437 21.3495 5.10873 26.0328 4.8454 32.2495C4.50873 40.0812 14.8054 40.0012 14.8054 40.0012C14.8054 40.0012 7.7654 37.6278 8.21373 33.5628C8.5404 30.6078 12.2187 28.3162 16.7954 26.3328C17.5471 29.3878 19.9521 36.9878 25.6554 39.1678C32.8437 41.9145 35.9487 31.8845 35.9487 31.8845C35.9487 31.8845 31.5704 37.9878 27.9221 36.2962C25.2721 35.0678 24.2737 30.7828 23.8421 25.7245C26.9171 25.9362 34.7354 25.9528 38.5271 21.0828C43.3054 14.9478 34.9304 8.82783 34.9304 8.82783C34.9304 8.82783 39.2587 14.9728 36.5571 17.9945C34.5937 20.1895 30.2987 19.8328 25.4571 18.6895C26.6054 15.7678 29.0337 8.17283 25.6721 2.98449C24.0837 0.534493 21.9254 -0.122174 19.8487 0.0178261ZM17.7387 4.16283C16.8271 4.16283 15.9104 4.28283 15.1437 4.43283C16.4437 4.91949 17.4987 5.68949 18.2471 6.70116C18.7996 7.45203 19.1683 8.32198 19.3237 9.24116C19.6788 8.44587 19.9708 7.6239 20.1971 6.78283C20.2744 6.489 20.2867 6.18186 20.2331 5.88279C20.1796 5.58372 20.0615 5.29992 19.8871 5.05116C19.7105 4.79922 19.4795 4.59011 19.2112 4.43925C18.943 4.28838 18.6442 4.19962 18.3371 4.17949C18.1379 4.16728 17.9383 4.16172 17.7387 4.16283ZM33.9271 11.3012C33.8737 12.7162 33.4887 13.9778 32.7754 15.0145C32.2532 15.7772 31.5567 16.4045 30.7437 16.8445C31.3608 16.9139 31.9811 16.9501 32.6021 16.9528C32.8387 16.9528 33.0737 16.9478 33.2987 16.9362C33.5986 16.9194 33.8908 16.8356 34.1539 16.6908C34.417 16.5459 34.6442 16.3439 34.8187 16.0995C34.9999 15.8456 35.1232 15.5552 35.1802 15.2485C35.2373 14.9419 35.2265 14.6265 35.1487 14.3245C34.8754 13.2295 34.3837 12.1545 33.9271 11.3012ZM5.60373 16.0445C5.18813 16.0479 4.78339 16.1776 4.44318 16.4163C4.10296 16.655 3.84334 16.9915 3.69873 17.3812C3.2904 18.4295 3.06873 19.5978 2.94706 20.5645C4.2554 18.8678 5.98873 17.9278 7.89206 17.9278C8.16759 17.928 8.44275 17.9481 8.7154 17.9878C8.08717 17.3981 7.41219 16.8602 6.69706 16.3795C6.37363 16.1625 5.99324 16.0459 5.60373 16.0445ZM27.1921 30.2878C27.3921 31.2478 27.6254 32.0812 27.8987 32.8078C28.0404 33.1958 28.2978 33.531 28.6361 33.7679C28.9744 34.0049 29.3773 34.1323 29.7904 34.1328C30.1849 34.1282 30.5698 34.0115 30.9004 33.7962C31.8321 33.1928 32.6837 32.3828 33.3387 31.6745C32.6833 31.8678 32.0038 31.9677 31.3204 31.9712C30.5551 31.9775 29.7962 31.832 29.0876 31.543C28.379 31.2541 27.7347 30.8275 27.1921 30.2878ZM13.5787 31.0012C12.8347 31.4318 12.1258 31.9205 11.4587 32.4628C11.2257 32.6559 11.0379 32.8977 10.9086 33.1713C10.7793 33.4449 10.7116 33.7436 10.7104 34.0462C10.7078 34.3572 10.7737 34.665 10.9037 34.9476C11.0336 35.2302 11.2243 35.4807 11.4621 35.6812C12.3121 36.3995 13.3321 36.9812 14.1954 37.3978C13.4204 36.2195 13.0104 34.9645 12.9887 33.6962C12.9736 32.7642 13.1756 31.8416 13.5787 31.0012Z" fill="#237ABF"/>
</svg>
