<svg width="32" height="34" viewBox="0 0 32 34" fill="none" xmlns="http://www.w3.org/2000/svg">
<path d="M16.0002 0.750977C15.2202 0.750977 14.4402 1.01723 13.7752 1.49348L11.7002 2.93848L9.32018 3.25098H9.28268L9.24268 3.28848C8.46005 3.46466 7.74352 3.85938 7.17638 4.42674C6.60924 4.99409 6.2148 5.71078 6.03893 6.49348L6.00143 6.53098V6.57098L5.68893 8.99348L4.24393 10.8685L4.20393 10.906V10.946C3.33143 12.3435 3.29143 14.146 4.24393 15.4772L5.72518 17.551L6.11768 19.6985L2.09268 25.8322L0.805176 27.7447H6.78143L8.22643 31.1047L9.12643 33.2547L10.4139 31.301L14.3614 25.3635C15.4189 25.801 16.6189 25.8385 17.6414 25.3635L21.5877 31.301L22.8752 33.251L23.7752 31.101L25.2189 27.7435H31.1952L29.9077 25.8285L26.0002 19.8922L26.3127 17.5485L27.7577 15.4785L27.7977 15.441V15.4035C28.6702 14.0035 28.7102 12.2435 27.7577 10.9097L26.3127 8.83848L25.8439 6.49348H25.8814C25.8814 6.46223 25.8477 6.44348 25.8439 6.41473C25.6189 4.78098 24.3227 3.45223 22.6814 3.25223H22.6414L20.2977 2.93973L18.2264 1.49473C17.5799 1.02098 16.8016 0.760959 16.0002 0.750977ZM16.0002 3.28848C16.2877 3.28848 16.5727 3.37598 16.7814 3.52598L19.0064 5.12598L19.2814 5.32098L19.5939 5.36098L22.3289 5.75098H22.3664C22.9264 5.81348 23.3214 6.20723 23.3827 6.76723V6.84473L23.8914 9.61973L23.9289 9.89098L24.1252 10.126L25.7252 12.351C26.0252 12.7697 26.0627 13.4685 25.6877 14.071L24.1252 16.2585L23.9302 16.5335L23.8902 16.846L23.5002 19.5785V19.616C23.4807 19.8116 23.4138 19.9996 23.3052 20.1635L23.2264 20.2035V20.2435C23.0402 20.4658 22.7739 20.6059 22.4852 20.6335H22.4077L19.5577 21.1422L19.2452 21.1797L19.0077 21.376L16.7827 22.976C16.3664 23.276 15.6277 23.3135 15.0252 22.9385L12.9927 21.376L12.7577 21.181L12.4077 21.141L9.67143 20.751H9.63143C9.45453 20.7365 9.28383 20.6791 9.13418 20.5837C8.98452 20.4883 8.86042 20.3578 8.77268 20.2035C8.68886 20.0596 8.63526 19.9001 8.61518 19.7347V19.6572L8.10768 16.8072L8.06768 16.4947L7.87268 16.2572L6.27268 14.0322C5.97268 13.616 5.93518 12.8772 6.31018 12.2747L7.87268 10.2422L8.06768 10.0072L8.10518 9.65723L8.45893 7.03848C8.46143 7.02098 8.49143 7.01973 8.49643 7.00098C8.57483 6.7003 8.73199 6.42598 8.95171 6.20626C9.17143 5.98654 9.44575 5.82938 9.74643 5.75098C9.76518 5.74598 9.76643 5.71598 9.78393 5.71348L12.4027 5.36098L12.7152 5.32098L12.9902 5.12598L15.2152 3.52598C15.4239 3.37598 15.7102 3.28848 15.9964 3.28848H16.0002ZM24.6327 22.3135L26.5477 25.2435H23.5377L23.2252 26.0247L22.3677 28.016L19.7114 23.9535L20.2964 23.5235L22.7564 23.0922V23.1297C22.7877 23.1297 22.8064 23.096 22.8352 23.0922C23.4926 22.9969 24.1124 22.7271 24.6302 22.311L24.6327 22.3135ZM7.36768 22.351C7.90143 22.8285 8.57643 23.161 9.32018 23.251H9.35768L11.7427 23.5635L12.2889 23.9935L9.63393 28.016L8.77518 26.0247L8.46268 25.2422H5.45018L7.36518 22.351H7.36768Z" fill="#237ABF"/>
</svg>
