<svg width="34" height="32" viewBox="0 0 34 32" fill="none" xmlns="http://www.w3.org/2000/svg">
<path d="M23.6663 20V20.8333H10.333V17.5H10.3363V16.6667V14.5833C10.3363 13.4333 11.2686 12.5 12.4197 12.5H21.5897C22.7394 12.5 23.673 13.4336 23.673 14.5833V19.1667H23.6663V20ZM6.99967 20V20.8333H1.58301C1.35324 20.8333 1.16634 20.6464 1.16634 20.4167V14.5834C1.16634 14.5834 1.16634 14.5833 1.16634 14.5833C1.16637 14.0605 1.36298 13.5568 1.71715 13.1722C2.06781 12.7914 2.54755 12.5549 3.06275 12.5085L3.26704 12.5H7.41744C7.19943 13.0233 7.0644 13.5809 7.02046 14.1528L7.01931 14.1677L7.0187 14.1826L7.0037 14.5493L7.00301 14.5663V14.5833V19.1667H6.99967V20ZM27.0063 14.5833C27.0063 13.8456 26.8585 13.1416 26.5909 12.5H30.7497C31.3022 12.5 31.8321 12.7195 32.2228 13.1102C32.6135 13.5009 32.833 14.0308 32.833 14.5833V20.4167C32.833 20.5272 32.7891 20.6332 32.711 20.7113C32.6328 20.7894 32.5268 20.8333 32.4163 20.8333H26.9997V17.5H27.0063V16.6667V14.5833ZM19.946 2.05372L20.5352 1.46447L19.946 2.05372C20.7274 2.83512 21.1663 3.89493 21.1663 5C21.1663 6.10507 20.7274 7.16488 19.946 7.94628L20.5352 8.53553L19.946 7.94628C19.1646 8.72768 18.1047 9.16667 16.9997 9.16667C15.8946 9.16667 14.8348 8.72768 14.0534 7.94628C13.272 7.16488 12.833 6.10507 12.833 5C12.833 3.89493 13.272 2.83512 14.0534 2.05372C14.8348 1.27232 15.8946 0.833333 16.9997 0.833333C18.1047 0.833333 19.1646 1.27232 19.946 2.05372ZM27.833 2.5C28.7171 2.5 29.5649 2.85119 30.19 3.47631C30.8152 4.10143 31.1663 4.94928 31.1663 5.83333C31.1663 6.71739 30.8152 7.56523 30.19 8.19036C29.5649 8.81548 28.7171 9.16667 27.833 9.16667C26.949 9.16667 26.1011 8.81548 25.476 8.19036C24.8509 7.56523 24.4997 6.71739 24.4997 5.83333C24.4997 4.94928 24.8509 4.10143 25.476 3.47631C26.1011 2.85119 26.949 2.5 27.833 2.5ZM6.16634 2.5C7.0504 2.5 7.89824 2.85119 8.52336 3.47631C9.14849 4.10143 9.49967 4.94928 9.49967 5.83333C9.49967 6.71739 9.14849 7.56523 8.52336 8.19036C7.89824 8.81548 7.0504 9.16667 6.16634 9.16667C5.28229 9.16667 4.43444 8.81548 3.80932 8.19036C3.1842 7.56523 2.83301 6.71739 2.83301 5.83333C2.83301 4.94928 3.1842 4.10143 3.80932 3.47631C4.43444 2.85119 5.28229 2.5 6.16634 2.5ZM1.16634 24.5833C1.16634 24.4728 1.21024 24.3668 1.28838 24.2887C1.36652 24.2106 1.4725 24.1667 1.58301 24.1667H32.4163C32.5268 24.1667 32.6328 24.2106 32.711 24.2887C32.7891 24.3668 32.833 24.4728 32.833 24.5833V25.4167C32.833 26.8533 32.2623 28.231 31.2465 29.2468C30.2307 30.2626 28.8529 30.8333 27.4163 30.8333H6.58301C5.14642 30.8333 3.76867 30.2626 2.75285 29.2468C1.73702 28.231 1.16634 26.8533 1.16634 25.4167V24.5833Z" fill="#237ABF" stroke="#237ABF" stroke-width="1.66667"/>
</svg>
