<svg width="40" height="40" viewBox="0 0 40 40" fill="none" xmlns="http://www.w3.org/2000/svg">
<path d="M19.974 5.98052C21.1553 5.98052 22.2882 6.44977 23.1235 7.28506C23.9587 8.12035 24.428 9.25324 24.428 10.4345C24.428 11.6158 23.9587 12.7487 23.1235 13.584C22.2882 14.4193 21.1553 14.8885 19.974 14.8885C18.7925 14.8885 17.6593 14.4192 16.8238 13.5837C15.9884 12.7482 15.519 11.6151 15.519 10.4335C15.519 9.25198 15.9884 8.11883 16.8238 7.28335C17.6593 6.44788 18.7925 5.97852 19.974 5.97852V5.98052ZM19.974 7.98052C19.3232 7.98052 18.699 8.23906 18.2388 8.69928C17.7785 9.15949 17.52 9.78367 17.52 10.4345C17.52 11.0854 17.7785 11.7095 18.2388 12.1698C18.699 12.63 19.3232 12.8885 19.974 12.8885C20.6251 12.8885 21.2495 12.6299 21.7099 12.1695C22.1703 11.7091 22.429 11.0846 22.429 10.4335C22.429 9.78241 22.1703 9.15797 21.7099 8.69757C21.2495 8.23717 20.6251 7.97852 19.974 7.97852V7.98052ZM6.032 23.0005C6.032 23.2657 5.92664 23.5201 5.73911 23.7076C5.55157 23.8952 5.29722 24.0005 5.032 24.0005C4.76678 24.0005 4.51243 23.8952 4.32489 23.7076C4.13736 23.5201 4.032 23.2657 4.032 23.0005V18.0285C4.03206 17.5386 4.21191 17.0658 4.53743 16.6998C4.86295 16.3337 5.3115 16.0998 5.798 16.0425L6.032 16.0285H11.546C11.255 16.5307 11.0775 17.0904 11.026 17.6685L11.01 18.0285H6.03V23.0005H6.032ZM34.98 24.0005C35.2452 24.0005 35.4996 23.8952 35.6871 23.7076C35.8746 23.5201 35.98 23.2657 35.98 23.0005V18.0285L35.966 17.7965C35.9091 17.3097 35.6755 16.8606 35.3093 16.5347C34.9432 16.2088 34.4702 16.0286 33.98 16.0285H28.412C28.704 16.5345 28.892 17.1145 28.936 17.7305L28.946 18.0305H33.98V23.0005C33.98 23.2657 34.0854 23.5201 34.2729 23.7076C34.4604 23.8952 34.7148 24.0005 34.98 24.0005V24.0005ZM24.948 16.0285C25.4382 16.0286 25.9112 16.2088 26.2773 16.5347C26.6435 16.8606 26.8771 17.3097 26.934 17.7965L26.946 18.0285V23.0005C26.946 23.2657 26.8406 23.5201 26.6531 23.7076C26.4656 23.8952 26.2112 24.0005 25.946 24.0005C25.6808 24.0005 25.4264 23.8952 25.2389 23.7076C25.0514 23.5201 24.946 23.2657 24.946 23.0005V18.0285H15.01V23.0005C15.01 23.2657 14.9046 23.5201 14.7171 23.7076C14.5296 23.8952 14.2752 24.0005 14.01 24.0005C13.7448 24.0005 13.4904 23.8952 13.3029 23.7076C13.1154 23.5201 13.01 23.2657 13.01 23.0005V18.0285C13.0101 17.5386 13.1899 17.0658 13.5154 16.6998C13.8409 16.3337 14.2895 16.0998 14.776 16.0425L15.01 16.0285H24.946H24.948ZM33.776 11.0625C33.776 10.0475 33.3728 9.07412 32.6551 8.35642C31.9374 7.63872 30.964 7.23552 29.949 7.23552C28.934 7.23552 27.9606 7.63872 27.2429 8.35642C26.5252 9.07412 26.122 10.0475 26.122 11.0625C26.122 12.0775 26.5252 13.0509 27.2429 13.7686C27.9606 14.4863 28.934 14.8895 29.949 14.8895C30.964 14.8895 31.9374 14.4863 32.6551 13.7686C33.3728 13.0509 33.776 12.0775 33.776 11.0625V11.0625ZM28.122 11.0625C28.122 10.578 28.3145 10.1133 28.6571 9.77063C28.9997 9.428 29.4644 9.23552 29.949 9.23552C30.4335 9.23552 30.8983 9.428 31.2409 9.77063C31.5835 10.1133 31.776 10.578 31.776 11.0625C31.776 11.5471 31.5835 12.0118 31.2409 12.3544C30.8983 12.697 30.4335 12.8895 29.949 12.8895C29.4644 12.8895 28.9997 12.697 28.6571 12.3544C28.3145 12.0118 28.122 11.5471 28.122 11.0625ZM10.032 7.23452C11.047 7.23452 12.0204 7.63772 12.7381 8.35542C13.4558 9.07312 13.859 10.0465 13.859 11.0615C13.859 12.0765 13.4558 13.0499 12.7381 13.7676C12.0204 14.4853 11.047 14.8885 10.032 14.8885C9.01702 14.8885 8.0436 14.4853 7.3259 13.7676C6.6082 13.0499 6.205 12.0765 6.205 11.0615C6.205 10.0465 6.6082 9.07312 7.3259 8.35542C8.0436 7.63772 9.01702 7.23452 10.032 7.23452V7.23452ZM10.032 9.23452C9.54745 9.23452 9.08275 9.427 8.74012 9.76963C8.39749 10.1123 8.205 10.577 8.205 11.0615C8.205 11.5461 8.39749 12.0108 8.74012 12.3534C9.08275 12.696 9.54745 12.8885 10.032 12.8885C10.5166 12.8885 10.9813 12.696 11.3239 12.3534C11.6665 12.0108 11.859 11.5461 11.859 11.0615C11.859 10.577 11.6665 10.1123 11.3239 9.76963C10.9813 9.427 10.5166 9.23452 10.032 9.23452V9.23452ZM5 26.0005C4.73478 26.0005 4.48043 26.1059 4.29289 26.2934C4.10536 26.4809 4 26.7353 4 27.0005V29.0005C4 30.3266 4.52678 31.5984 5.46447 32.536C6.40215 33.4737 7.67392 34.0005 9 34.0005H31C32.3261 34.0005 33.5979 33.4737 34.5355 32.536C35.4732 31.5984 36 30.3266 36 29.0005V27.0005C36 26.7353 35.8946 26.4809 35.7071 26.2934C35.5196 26.1059 35.2652 26.0005 35 26.0005H5ZM6 29.0005V28.0005H34V29.0005C34 29.7962 33.6839 30.5592 33.1213 31.1218C32.5587 31.6844 31.7956 32.0005 31 32.0005H9C8.20435 32.0005 7.44129 31.6844 6.87868 31.1218C6.31607 30.5592 6 29.7962 6 29.0005Z" fill="#237ABF"/>
</svg>
