<svg width="28" height="28" viewBox="0 0 28 28" fill="none" xmlns="http://www.w3.org/2000/svg">
<path d="M20.5481 18.1027C22.2426 15.7904 23.0016 12.9235 22.6732 10.0757C22.3447 7.22783 20.9531 4.60901 18.7767 2.74314C16.6003 0.877276 13.7997 -0.0980296 10.9351 0.0123484C8.07048 0.122726 5.35319 1.31065 3.32684 3.33845C1.30048 5.36626 0.114507 8.0844 0.00617831 10.9491C-0.10215 13.8137 0.875159 16.6137 2.74258 18.7887C4.61 20.9638 7.22982 22.3535 10.0779 22.6799C12.926 23.0063 15.7923 22.2453 18.1034 20.5492H18.1016C18.1541 20.6192 18.2101 20.6857 18.2731 20.7504L25.0106 27.4879C25.3388 27.8163 25.7839 28.0009 26.2481 28.001C26.7123 28.0012 27.1576 27.8169 27.486 27.4888C27.8144 27.1607 27.9989 26.7155 27.9991 26.2513C27.9993 25.7871 27.815 25.3418 27.4869 25.0134L20.7494 18.2759C20.6868 18.2126 20.6195 18.1541 20.5481 18.1009V18.1027ZM20.9996 11.3757C20.9996 12.6396 20.7507 13.8912 20.267 15.059C19.7833 16.2268 19.0743 17.2878 18.1805 18.1816C17.2868 19.0753 16.2257 19.7843 15.0579 20.268C13.8902 20.7517 12.6386 21.0007 11.3746 21.0007C10.1106 21.0007 8.85905 20.7517 7.69129 20.268C6.52353 19.7843 5.46248 19.0753 4.56872 18.1816C3.67495 17.2878 2.96598 16.2268 2.48228 15.059C1.99858 13.8912 1.74962 12.6396 1.74962 11.3757C1.74962 8.82296 2.76368 6.3748 4.56872 4.56976C6.37375 2.76472 8.82191 1.75066 11.3746 1.75066C13.9273 1.75066 16.3755 2.76472 18.1805 4.56976C19.9856 6.3748 20.9996 8.82296 20.9996 11.3757Z" fill="#237ABF"/>
</svg>
