<svg width="30" height="30" viewBox="0 0 30 30" fill="none" xmlns="http://www.w3.org/2000/svg">
<path fill-rule="evenodd" clip-rule="evenodd" d="M19.1667 0.000976562V1.66764C19.1667 2.75598 19.8625 3.68264 20.8333 4.02598V5.00098H20C19.779 5.00098 19.567 5.08877 19.4107 5.24505C19.2545 5.40133 19.1667 5.6133 19.1667 5.83431V10.8343C19.1667 11.0553 19.2545 11.2673 19.4107 11.4236C19.567 11.5798 19.779 11.6676 20 11.6676H23.3333C23.5543 11.6676 23.7663 11.5798 23.9226 11.4236C24.0789 11.2673 24.1667 11.0553 24.1667 10.8343V5.83431C24.1667 5.6133 24.0789 5.40133 23.9226 5.24505C23.7663 5.08877 23.5543 5.00098 23.3333 5.00098H22.5V4.16764H26.6667V14.2226H11.7583C11.7246 14.2227 11.6912 14.2162 11.66 14.2033C11.6288 14.1904 11.6005 14.1715 11.5767 14.1476L11.2717 13.8393L11.5792 13.5335C11.8711 13.2418 12.1028 12.8954 12.2608 12.5142C12.4189 12.1329 12.5003 11.7243 12.5003 11.3116C12.5004 10.8989 12.4192 10.4902 12.2613 10.1089C12.1033 9.72757 11.8719 9.38112 11.58 9.08931L10.08 7.58931C9.78836 7.29734 9.44206 7.06567 9.06088 6.90753C8.67971 6.74939 8.27111 6.66787 7.85843 6.66764C7.44576 6.66741 7.03707 6.74846 6.65572 6.90617C6.27436 7.06389 5.9278 7.29517 5.63583 7.58681L5.04917 8.17348C4.4819 8.01195 3.88166 8.00569 3.31115 8.15536C2.74063 8.30502 2.22076 8.60512 1.80583 9.02431C1.18274 9.65374 0.83322 10.5036 0.83322 11.3893C0.83322 12.275 1.18274 13.1249 1.80583 13.7543L2.5 14.4535V23.3343H0V25.001H2.54167C2.12781 25.4065 1.84411 25.926 1.72673 26.4934C1.60935 27.0608 1.66362 27.6503 1.88261 28.1867C2.1016 28.7231 2.4754 29.1822 2.95632 29.5053C3.43725 29.8284 4.00352 30.001 4.58292 30.001C5.16231 30.001 5.72858 29.8284 6.20951 29.5053C6.69044 29.1822 7.06423 28.7231 7.28322 28.1867C7.50221 27.6503 7.55648 27.0608 7.4391 26.4934C7.32172 25.926 7.03802 25.4065 6.62417 25.001H23.3758C22.962 25.4065 22.6783 25.926 22.5609 26.4934C22.4435 27.0608 22.4978 27.6503 22.7168 28.1867C22.9358 28.7231 23.3096 29.1822 23.7905 29.5053C24.2714 29.8284 24.8377 30.001 25.4171 30.001C25.9965 30.001 26.5627 29.8284 27.0437 29.5053C27.5246 29.1822 27.8984 28.7231 28.1174 28.1867C28.3364 27.6503 28.3906 27.0608 28.2733 26.4934C28.1559 25.926 27.8722 25.4065 27.4583 25.001H30V23.3343H26.6667V20.8343H26.7217C28.5333 20.8343 30 19.3543 30 17.5285C30.0011 16.9441 29.8475 16.3699 29.5548 15.8642C29.262 15.3585 28.8406 14.9393 28.3333 14.6493V4.16764C28.3333 3.72562 28.1577 3.30169 27.8452 2.98913C27.5326 2.67657 27.1087 2.50098 26.6667 2.50098H21.6667C21.4457 2.50098 21.2337 2.41318 21.0774 2.2569C20.9211 2.10062 20.8333 1.88866 20.8333 1.66764V0.000976562H19.1667ZM6.52167 9.05764L10.0967 12.6576L10.4008 12.3543C10.5379 12.2173 10.6466 12.0547 10.7208 11.8757C10.795 11.6966 10.8332 11.5048 10.8332 11.311C10.8332 11.1172 10.795 10.9253 10.7208 10.7463C10.6466 10.5673 10.5379 10.4046 10.4008 10.2676L8.90083 8.76764C8.6243 8.4908 8.24914 8.3351 7.85784 8.33479C7.46655 8.33447 7.09114 8.48957 6.81417 8.76598L6.5225 9.05764H6.52167ZM25 23.3343H4.16667V16.131L8.5625 20.5568C8.73917 20.7343 8.9775 20.8343 9.22667 20.8343H25V23.3343Z" fill="#237ABF"/>
</svg>
